<?xml version="1.0" standalone="no"?>
<!DOCTYPE svg PUBLIC "-//W3C//DTD SVG 1.1//EN" "http://www.w3.org/Graphics/SVG/1.1/DTD/svg11.dtd" >
<svg xmlns="http://www.w3.org/2000/svg">
<metadata></metadata>
<defs>
<font id="roboto_condensedbold_italic" horiz-adv-x="880" >
<font-face units-per-em="2048" ascent="1638" descent="-410" />
<missing-glyph horiz-adv-x="439" />
<glyph horiz-adv-x="2048" />
<glyph horiz-adv-x="2048" />
<glyph unicode="&#xd;" horiz-adv-x="439" />
<glyph horiz-adv-x="26" />
<glyph unicode="&#x9;" horiz-adv-x="26" />
<glyph unicode=" "  horiz-adv-x="439" />
<glyph unicode="&#x09;" horiz-adv-x="439" />
<glyph unicode="&#xa0;" horiz-adv-x="439" />
<glyph unicode="!" horiz-adv-x="500" d="M29 0l52 258h276l-52 -258h-276zM126 506l190 950h283l-190 -950h-283z" />
<glyph unicode="&#x22;" horiz-adv-x="591" d="M147 1046l39 239l44 275h196l-42 -263l-115 -251h-122zM440 1046l41 247l43 267h193l-42 -263l-114 -251h-121z" />
<glyph unicode="#" horiz-adv-x="993" d="M43 410l33 166h198l100 297h-178l33 167h202l140 416h170l-140 -416h121l140 416h171l-140 -416h176l-33 -167h-199l-100 -297h178l-33 -166h-201l-138 -410h-171l138 410h-122l-138 -410h-170l138 410h-175zM444 576h122l100 297h-122z" />
<glyph unicode="$" horiz-adv-x="984" d="M82 456h282q-23 -141 7 -196.5t96 -55.5q53 0 91 49.5t51 127.5q13 87 -8 134.5t-88 94.5q-172 87 -244.5 183.5t-42.5 278.5q27 172 132.5 277t259.5 124l35 212h142l-35 -217q133 -30 198.5 -151t35.5 -309h-282q19 122 -2 182.5t-71 60.5t-85 -51t-47 -129 q-13 -78 9 -125.5t91 -96.5q169 -92 240.5 -189.5t43.5 -276.5q-29 -178 -132 -279.5t-257 -119.5l-31 -199h-143l31 200q-146 22 -229 137t-48 334z" />
<glyph unicode="%" horiz-adv-x="1305" d="M223 184l800 1138l118 -74l-800 -1138zM225 1099l15 77q27 137 114.5 219t219.5 82q122 0 180.5 -87t33.5 -214l-15 -77q-28 -138 -114 -218.5t-219 -80.5q-122 0 -181.5 86.5t-33.5 212.5zM409 1099q-12 -60 4 -98t60 -38q40 0 72 40t44 96l15 77q12 61 -3 99.5 t-59 38.5q-40 0 -73.5 -41t-44.5 -97zM641 280l15 77q27 136 114.5 218t219.5 82q123 0 181 -87t33 -213l-15 -77q-28 -139 -113.5 -219.5t-218.5 -80.5q-122 0 -182 87t-34 213zM826 280q-13 -59 5.5 -98.5t57.5 -38.5q48 -1 76.5 37.5t40.5 99.5l15 77q12 61 -3.5 99 t-59.5 38q-40 0 -73 -40.5t-44 -96.5z" />
<glyph unicode="&#x26;" horiz-adv-x="1181" d="M51 388q19 123 86 204.5t197 176.5q-44 94 -60 171t-3 157q28 177 138 278.5t270 101.5q132 0 206 -99.5t52 -237.5q-16 -101 -69 -179.5t-136 -137.5l-85 -62l167 -298l5 1q33 50 57 113t36 134h205q-24 -142 -69 -254.5t-119 -199.5l144 -257h-319l-45 81 q-80 -51 -157 -76.5t-161 -25.5q-178 0 -273.5 114.5t-66.5 294.5zM338 406q-15 -90 16 -145t90 -55q40 0 82 12t86 37l-189 341l-4 -3q-37 -49 -55.5 -94.5t-25.5 -92.5zM521 1100q-7 -41 3 -83t34 -91l57 40q53 36 75 73.5t30 82.5q7 51 -14 89t-64 38q-45 0 -78 -43 t-43 -106z" />
<glyph unicode="'" horiz-adv-x="298" d="M144 1007l41 268l46 285h188l-44 -272l-110 -281h-121z" />
<glyph unicode="(" horiz-adv-x="619" d="M129 567l4 24q64 401 231 666.5t343 348.5h6l26 -143q-114 -98 -217.5 -318t-156.5 -552l-5 -28q-55 -347 -22 -558t118 -313l-72 -141h-6q-147 82 -229 355t-20 659z" />
<glyph unicode=")" horiz-adv-x="617" d="M-77 -306q113 98 216.5 318.5t157.5 552.5l5 28q55 345 21 558t-117 314l74 141h6q149 -81 236.5 -362t28.5 -653l-4 -24q-63 -390 -237 -661t-353 -353h-6z" />
<glyph unicode="*" horiz-adv-x="801" d="M162 1058l86 173l221 -127l51 352h175l-87 -351l4 -4l258 122l17 -175l-273 -93l112 -269l-163 -107l-78 287l-6 1l-194 -279l-121 103l228 275z" />
<glyph unicode="+" horiz-adv-x="959" d="M82 556l51 254h289l79 396h266l-79 -396h287l-51 -254h-287l-82 -410h-266l82 410h-289z" />
<glyph unicode="," horiz-adv-x="454" d="M-100 -309l121 319l46 231h250l-48 -239l-205 -311h-164z" />
<glyph unicode="-" horiz-adv-x="734" d="M140 511l46 228h478l-46 -228h-478z" />
<glyph unicode="." horiz-adv-x="535" d="M37 0l52 258h278l-52 -258h-278z" />
<glyph unicode="/" horiz-adv-x="625" d="M-119 -125l724 1581h204l-726 -1581h-202z" />
<glyph unicode="0" horiz-adv-x="977" d="M108 571l63 313q61 309 198 451t329 142q174 0 261 -154t30 -439l-63 -313q-62 -310 -198.5 -451t-326.5 -141q-176 0 -263.5 153t-29.5 439zM364.5 282.5q17.5 -75.5 79.5 -67.5l6 -1q53 -7 103.5 75.5t86.5 258.5l72 361q37 187 20 262.5t-77 68.5l-6 1 q-54 6 -105.5 -76.5t-85.5 -255.5l-72 -361q-39 -190 -21.5 -265.5z" />
<glyph unicode="1" horiz-adv-x="984" d="M271 1153l41 205l555 99l-291 -1457h-282l232 1159z" />
<glyph unicode="2" horiz-adv-x="984" d="M12 0l31 193l458 503q92 112 136.5 194.5t56.5 151.5q15 97 -8 152t-85 55q-60 0 -106.5 -70t-63.5 -180h-274l-2 6q29 205 160.5 338.5t321.5 133.5q186 0 278 -117.5t61 -314.5q-23 -140 -98 -249t-248 -297l-213 -267l3 -5h453l-36 -227h-825z" />
<glyph unicode="3" horiz-adv-x="984" d="M51 395l3 5h275q-14 -87 16 -140.5t89 -53.5q64 0 114 56.5t65 147.5q18 121 -11 172t-105 51h-138l24 150l11 70h138q66 0 109 54.5t58 150.5q14 88 -10.5 139.5t-87.5 51.5q-48 0 -92.5 -47.5t-56.5 -122.5h-271l-3 6q24 180 153 286t298 106q183 0 283 -109.5 t69 -305.5q-17 -103 -79 -187t-155 -130q89 -44 127.5 -132t19.5 -207q-34 -207 -172.5 -317t-332.5 -110q-162 0 -267.5 108.5t-70.5 307.5z" />
<glyph unicode="4" horiz-adv-x="984" d="M49 318l20 178l661 960h281l-182 -910h116l-45 -228h-117l-63 -318h-281l63 318h-453zM333 546h215l98 493l-5 3l-14 -19z" />
<glyph unicode="5" horiz-adv-x="984" d="M73 398l283 15q-16 -102 11 -154.5t86 -52.5q65 0 107.5 72.5t61.5 186.5q21 133 -0.5 206t-94.5 73q-50 0 -85 -32.5t-54 -84.5l-248 17l199 812h684l-37 -233h-454l-84 -343q33 31 80 51.5t93 22.5q175 3 247.5 -125.5t35.5 -361.5q-35 -215 -161.5 -351.5 t-325.5 -136.5q-162 0 -269 113t-75 306z" />
<glyph unicode="6" horiz-adv-x="984" d="M98 563l48 300q47 294 210 454t384 160q66 0 120.5 -15.5t107.5 -46.5l-81 -215q-47 23 -87.5 34.5t-95.5 11.5q-93 0 -166.5 -93t-99.5 -259l3 -5q43 41 103 64.5t131 23.5q151 0 220 -140.5t35 -354.5q-36 -226 -171 -364.5t-318 -138.5q-187 0 -286.5 157.5 t-56.5 426.5zM377.5 294q26.5 -88 97.5 -82l6 -1q52 -5 100.5 76.5t66.5 194.5q19 126 -4.5 198.5t-80.5 72.5q-52 0 -93.5 -19.5t-70.5 -55.5l-19 -118q-29 -178 -2.5 -266z" />
<glyph unicode="7" horiz-adv-x="984" d="M183 1228l37 228h849l-37 -228q-229 -252 -323.5 -480.5t-183.5 -607.5l-35 -140h-282l35 140q79 328 206 599t313 489h-579z" />
<glyph unicode="8" horiz-adv-x="984" d="M79 398q24 126 96 215.5t177 135.5q-73 48 -105 131.5t-10 189.5q41 207 164 307t301 100q162 0 251.5 -108.5t51.5 -298.5q-24 -118 -87.5 -202t-156.5 -128q81 -51 118 -140t15 -202q-44 -217 -173.5 -318t-317.5 -101q-171 0 -267.5 110t-56.5 309zM366 259.5 q22 -53.5 82 -53.5q53 0 100.5 57.5t67.5 155.5q20 104 -2.5 158.5t-80.5 54.5q-54 0 -101 -58.5t-66 -154.5q-22 -106 0 -159.5zM513 908.5q15 -49.5 66 -49.5q47 0 83.5 53t55.5 144q18 95 3.5 144t-64.5 49q-47 0 -84.5 -52t-54.5 -141q-20 -98 -5 -147.5z" />
<glyph unicode="9" horiz-adv-x="984" d="M124 41l64 212q50 -24 98.5 -35.5t110.5 -11.5q76 0 142.5 83t90.5 229l7 47q-46 -54 -99.5 -81.5t-109.5 -27.5q-158 0 -232 136t-37 365q36 227 174 373.5t317 146.5q176 0 269.5 -156t50.5 -429l-57 -356q-43 -266 -196 -411.5t-356 -145.5q-57 0 -122 16.5t-115 45.5 zM436.5 745.5q18.5 -75.5 79.5 -75.5q43 0 82.5 25t69.5 66l27 166q26 165 3.5 242.5t-82.5 71.5l-6 1q-52 5 -102 -82.5t-68 -202.5q-22 -136 -3.5 -211.5z" />
<glyph unicode=":" horiz-adv-x="535" d="M41 0l52 258h278l-52 -258h-278zM206 823l52 258h278l-52 -258h-278z" />
<glyph unicode=";" horiz-adv-x="511" d="M-58 -309l121 319l46 231h250l-48 -239l-205 -311h-164zM195 823l52 258h278l-52 -258h-278z" />
<glyph unicode="&#x3c;" horiz-adv-x="866" d="M51 431l16 81l30 149l778 364l-54 -270l-498 -209v-6l414 -203l-54 -271z" />
<glyph unicode="=" horiz-adv-x="987" d="M99 323l45 229h739l-45 -229h-739zM185 756l46 228h739l-46 -228h-739z" />
<glyph unicode="&#x3e;" horiz-adv-x="877" d="M33 66l54 269l505 209v6l-421 206l54 269l639 -364l-17 -82h1l-30 -149z" />
<glyph unicode="?" horiz-adv-x="872" d="M156 1075q37 197 167.5 299.5t308.5 102.5q180 0 274 -117.5t56 -310.5q-27 -134 -106.5 -234.5t-189.5 -175.5q-58 -46 -84.5 -94.5t-42.5 -131.5h-282q28 136 79 201.5t175 159.5q63 55 106.5 121.5t61.5 152.5q19 98 -4.5 149t-87.5 51q-44 0 -91.5 -47.5 t-64.5 -131.5h-273zM175 0l49 247h278l-49 -247h-278z" />
<glyph unicode="@" horiz-adv-x="1549" d="M67 478q100 428 352 682t584 254q305 0 442 -245.5t43 -652.5q-51 -219 -186 -378t-341 -159q-64 0 -105.5 46t-46.5 128q-54 -86 -115.5 -128.5t-130.5 -42.5q-114 0 -159.5 121t9.5 313q72 252 202.5 404t273.5 152q95 0 158.5 -27.5t123.5 -78.5l-4 -4h5l-157 -569 q-24 -98 -18 -132.5t31 -26.5l6 -1q82 -6 163 106t121 277q83 350 -3 546.5t-347 196.5q-236 0 -433.5 -214t-279.5 -567q-85 -352 7.5 -557.5t343.5 -205.5q67 0 150 20t143 49l4 -148q-66 -42 -158 -65.5t-176 -23.5q-316 0 -458 253.5t-44 677.5zM602.5 222 q7.5 -67 55.5 -67q40 0 80.5 28.5t82.5 103.5l2 6l136 497q-15 5 -31.5 8t-33.5 3q-84 0 -149.5 -96.5t-117.5 -288.5q-32 -127 -24.5 -194z" />
<glyph unicode="A" horiz-adv-x="1095" d="M-65 0l679 1456h293l96 -1456h-284l-13 309h-351l-136 -309h-284zM455 538h242l-19 491l-6 1z" />
<glyph unicode="B" horiz-adv-x="1097" d="M22 0l291 1456h414q203 0 311 -102q79 -75 79 -201q0 -44 -10 -95q-23 -110 -81.5 -188.5t-153.5 -116.5q104 -27 136 -117q19 -52 20 -116q0 -45 -10 -95q-45 -223 -177.5 -324t-351.5 -101h-467zM350 227h184q77 0 130 50.5t73 148.5q11 55 11 95q0 43 -12 69 q-22 52 -100 52h-203zM473 841h141q76 2 130.5 51.5t73.5 138.5q8 42 8 75q0 51 -20 78q-33 44 -124 44h-131z" />
<glyph unicode="C" horiz-adv-x="1081" d="M109 584l58 290q57 289 203 446t356 157q213 1 325 -141q88 -111 88 -285q0 -48 -7 -101h-281q10 61 10 109q-1 71 -21 115q-34 76 -141 75q-82 0 -150 -103t-101 -270l-58 -292q-19 -92 -19 -163q0 -67 17 -115q35 -100 135 -100q89 0 144 69.5t92 219.5h273l2 -6 q-60 -251 -188 -380.5t-342 -129.5q-206 0 -326 173q-84 121 -85 284q0 70 16 148z" />
<glyph unicode="D" horiz-adv-x="1107" d="M22 0l291 1456h391q204 0 329 -178q88 -126 89 -292q0 -69 -16 -145l-49 -245q-58 -288 -210.5 -442t-368.5 -154h-456zM350 227h157q100 0 166.5 97t101.5 272l50 247q14 72 14 131q0 88 -30 150q-50 104 -166 104h-93z" />
<glyph unicode="E" horiz-adv-x="971" d="M22 0l291 1456h823l-45 -228h-541l-72 -362h460l-45 -227h-460l-83 -412h542l-45 -227h-825z" />
<glyph unicode="F" horiz-adv-x="979" d="M22 0l291 1456h830l-45 -228h-548l-79 -396h464l-45 -227h-464l-121 -605h-283z" />
<glyph unicode="G" horiz-adv-x="1133" d="M95 506l89 444q53 268 207.5 397.5t374.5 129.5q217 0 316 -121q73 -88 73 -226q0 -52 -11 -112l-3 -5h-266q8 47 8 84q0 61 -21 95q-36 57 -133 57q-90 0 -162 -75t-101 -222l-89 -446q-15 -74 -15 -129q0 -65 22 -103q39 -68 146 -68q73 0 117 24t75 67l53 261h-174 l40 200h456l-109 -542q-76 -94 -203 -165.5t-300 -71.5q-210 0 -325 139q-80 98 -80 248q0 65 15 140z" />
<glyph unicode="H" horiz-adv-x="1193" d="M22 0l291 1456h283l-125 -626h415l125 626h281l-291 -1456h-281l120 603h-415l-120 -603h-283z" />
<glyph unicode="I" horiz-adv-x="523" d="M35 0l291 1456h281l-291 -1456h-281z" />
<glyph unicode="J" horiz-adv-x="980" d="M53 427h283q-12 -60 -12 -102q0 -45 14 -70q26 -49 84 -49q49 0 101 64t74 174l202 1012h281l-202 -1012q-47 -229 -184 -347t-317 -118q-178 0 -273 115q-65 78 -65 205q0 59 14 128z" />
<glyph unicode="K" horiz-adv-x="1053" d="M22 0l291 1456h282l-119 -594h87l325 594h370l-496 -722l217 -734h-324l-148 602h-83l-120 -602h-282z" />
<glyph unicode="L" horiz-adv-x="927" d="M22 0l291 1456h283l-246 -1229h502l-45 -227h-785z" />
<glyph unicode="M" horiz-adv-x="1421" d="M17 0l291 1456h366l24 -1067l6 -1l453 1068h368l-291 -1456h-281l85 423l129 533l-6 2l-444 -958h-187l-59 947l-6 1l-82 -525l-85 -423h-281z" />
<glyph unicode="N" horiz-adv-x="1193" d="M22 0l291 1456h283l226 -905h6l181 905h281l-291 -1456h-281l-226 907h-6l-181 -907h-283z" />
<glyph unicode="O" horiz-adv-x="1158" d="M114 600l52 259q58 290 212.5 454t376.5 164q211 0 337 -181q89 -128 89 -296q0 -69 -15 -145l-52 -259q-58 -289 -218 -453t-384 -164q-209 -1 -330 179q-84 125 -84 290q0 72 16 152zM394 600q-16 -80 -16 -145q0 -81 25 -141q45 -106 154 -107q95 0 168 107.5 t108 281.5l52 261q15 74 15 135q0 86 -30 149q-50 107 -160 107q-94 0 -161.5 -106t-102.5 -281z" />
<glyph unicode="P" horiz-adv-x="1119" d="M22 0l291 1456h488q194 0 296 -132q73 -94 73 -226q0 -52 -11 -109q-45 -223 -189.5 -345t-355.5 -122h-205l-104 -522h-283zM455 750h205q77 0 137 68.5t80 168.5q9 47 9 86q0 52 -16 90q-30 65 -114 65h-205z" />
<glyph unicode="Q" horiz-adv-x="1196" d="M120 600l52 259q58 290 212.5 454t376.5 164q211 0 337 -181q89 -128 89 -296q0 -69 -15 -145l-52 -259q-30 -144 -85 -258.5t-132 -193.5l152 -225l-204 -150l-159 238q-42 -13 -85.5 -20.5t-88.5 -7.5q-209 0 -330 179q-84 125 -84 290q0 72 16 152zM400 600 q-16 -80 -16 -145q0 -82 25 -141q45 -107 154 -107q95 0 168 107.5t108 281.5l52 261q15 74 15 135q0 87 -30 149q-50 107 -160 107q-94 0 -161.5 -106t-102.5 -281z" />
<glyph unicode="R" horiz-adv-x="1118" d="M23 0l291 1455h457q192 1 293 -115q73 -83 73 -210q0 -49 -11 -104q-25 -123 -89.5 -202.5t-169.5 -127.5q95 -40 127 -130q18 -51 19 -112q0 -48 -11 -102l-20 -103q-13 -64 -13 -130.5t27 -97.5l-4 -21h-292q-22 26 -22 78v22q6 69 22 151l20 99q10 52 10 92 q0 48 -16 80q-28 56 -105 57h-188l-116 -579h-282zM466 806h174q72 0 126.5 54t74.5 150q9 45 9 81q0 49 -16 81q-28 56 -108 56h-175z" />
<glyph unicode="S" horiz-adv-x="1048" d="M93 424l2 5h275q-8 -41 -9 -74q-1 -69 37 -101q54 -48 145 -48q52 0 102 42.5t63 104.5q7 35 7 63q1 54 -23 86q-36 50 -145 108q-201 82 -293 196q-66 81 -65 197q0 46 10 97q36 180 171 278.5t321 98.5q198 0 306 -120q76 -85 76 -212q0 -53 -13 -114l-2 -5h-275 q7 35 7 65q0 57 -25 97q-38 60 -119 61q-54 0 -103 -43t-61 -104q-6 -30 -6 -56q0 -53 27 -84q40 -46 176 -113q185 -77 267 -191q56 -78 56 -191q0 -52 -12 -112q-38 -187 -171 -281.5t-321 -94.5q-194 1 -324 109q-94 78 -95 219q0 54 14 117z" />
<glyph unicode="T" horiz-adv-x="955" d="M193 1228l45 228h893l-45 -228h-308l-245 -1228h-281l245 1228h-304z" />
<glyph unicode="U" horiz-adv-x="1131" d="M100 465l198 991h281l-198 -991q-12 -61 -12 -106q0 -60 21 -94q37 -59 132 -59q89 0 153.5 61t91.5 198l198 991h281l-198 -991q-50 -248 -201.5 -367t-369.5 -119q-199 1 -311 129q-79 91 -79 232q0 58 13 125z" />
<glyph unicode="V" horiz-adv-x="1090" d="M176 1456h296l49 -1084l2 -49l5 -1l17 47l398 1087h296l-618 -1456h-293z" />
<glyph unicode="W" horiz-adv-x="1484" d="M187 1456h273v-898l6 -1l336 899h202l52 -900h6l287 900h273l-498 -1456h-263l-50 863h-6l-325 -863h-261z" />
<glyph unicode="X" horiz-adv-x="1088" d="M-40 0l458 734l-217 722h324l95 -508l6 -1l261 509h326l-449 -722l239 -734h-340l-101 519l-6 1l-268 -520h-328z" />
<glyph unicode="Y" horiz-adv-x="1085" d="M217 1456h308l99 -607l5 -1l344 608h307l-583 -939l-103 -517h-281l108 539z" />
<glyph unicode="Z" horiz-adv-x="966" d="M5 143l670 1086h-439l45 227h777l-27 -138l-674 -1091h514l-45 -227h-814z" />
<glyph unicode="[" horiz-adv-x="522" d="M-20 -339l325 2034h387l-35 -217h-102l-256 -1601h102l-34 -216h-387z" />
<glyph unicode="\" horiz-adv-x="737" d="M209 1456h277l175 -1581h-280z" />
<glyph unicode="]" horiz-adv-x="522" d="M-98 -339l34 216h105l256 1601h-105l35 217h388l-325 -2034h-388z" />
<glyph unicode="^" horiz-adv-x="761" d="M100 729l386 727h204l96 -727h-216l-41 422v-1l-6 1l-206 -422h-217z" />
<glyph unicode="_" horiz-adv-x="769" d="M-116 -220l44 220h741l-44 -220h-741z" />
<glyph unicode="`" horiz-adv-x="618" d="M235 1477h302l124 -266h-226z" />
<glyph unicode="a" horiz-adv-x="911" d="M33 302q34 170 146 252.5t309 82.5h96l18 88q8 42 8 73t-8 51q-16 40 -68 40q-39 0 -68 -35t-41 -98l-273 1l-2 6q26 151 148 245t297 94q153 0 239 -100q62 -71 61 -182q0 -45 -10 -97l-88 -438q-17 -84 -19 -150q-1 -14 -1 -29q0 -52 7 -106h-280q-6 27 -8.5 58 t-2.5 64q-50 -65 -110.5 -104t-131.5 -39q-119 -1 -183 89q-44 61 -44 149q0 40 9 85zM318 315q-5 -25 -5 -45q0 -27 9 -45q16 -32 54 -32q36 0 72.5 22t63.5 58l40 201h-96q-53 0 -89 -45.5t-49 -113.5z" />
<glyph unicode="b" horiz-adv-x="960" d="M5 0l312 1560h282l-110 -546q44 42 92.5 65t100.5 23q159 0 225 -167q38 -95 38 -218q0 -93 -22 -201l-4 -21q-53 -262 -155 -389t-273 -127q-67 0 -120 32.5t-85 93.5l-37 -105h-244zM338 258q13 -27 39.5 -39t68.5 -12q75 0 118.5 71.5t73.5 216.5l4 21q28 137 28 223 q0 23 -2 43q-10 92 -88 92q-38 0 -74 -30t-67 -82z" />
<glyph unicode="c" horiz-adv-x="878" d="M58 470l22 139q36 224 164.5 358.5t330.5 134.5q163 0 247 -114q62 -84 61 -213q0 -45 -7 -96h-263q6 43 6 77q-1 40 -9 67q-16 51 -71 51q-74 0 -116 -73t-61 -192l-22 -139q-12 -71 -12 -124q0 -42 8 -72q17 -68 97 -68q51 0 84.5 43t46.5 124h255l2 -6 q-26 -177 -144 -282.5t-280 -105.5q-193 1 -283 139q-65 100 -66 239q0 53 10 113z" />
<glyph unicode="d" horiz-adv-x="960" d="M76 534l4 21q54 272 162 409.5t275 137.5q56 0 103 -27t81 -77l113 562h282l-312 -1560h-245l4 97q-50 -57 -106 -87.5t-115 -30.5q-152 -1 -223 159q-42 95 -42 218q0 83 19 178zM339 292q13 -85 86 -85q36 0 71.5 26.5t66.5 73.5l100 498q-13 34 -38.5 51.5t-62.5 17.5 q-68 0 -119.5 -86t-80.5 -233l-4 -21q-23 -112 -22 -187q-1 -30 3 -55z" />
<glyph unicode="e" horiz-adv-x="907" d="M73 451l24 152q36 227 163 363t318 136q176 0 258 -128q58 -91 59 -226q0 -56 -10 -119l-28 -174h-504v-4q-6 -39 -6 -73q0 -62 21 -105q33 -67 125 -67q72 0 124.5 18.5t123.5 59.5l42 -181q-62 -54 -157 -89t-203 -35q-189 0 -286 135q-72 101 -72 239q0 47 8 98z M384 645h226l7 40q7 45 7 79q0 38 -8 62q-16 48 -74 48t-97 -62.5t-61 -166.5z" />
<glyph unicode="f" horiz-adv-x="631" d="M66 0l175 876h-126l41 206h126l24 120q39 194 146.5 286.5t276.5 92.5q30 0 62 -5.5t70 -15.5l-67 -218q-17 4 -34.5 7t-41.5 3q-46 0 -81 -39.5t-49 -110.5l-24 -120h162l-41 -206h-162l-175 -876h-282z" />
<glyph unicode="g" horiz-adv-x="960" d="M-15 -354l93 219q49 -32 101 -48t118 -16q77 0 134 64t79 171l5 26q-44 -40 -92 -61.5t-99 -21.5q-153 0 -224 159q-43 96 -43 219q0 82 19 177l4 21q54 272 162.5 409.5t275.5 137.5q64 0 116 -33t85 -93l37 106h245l-209 -1047q-46 -229 -187.5 -350.5t-352.5 -121.5 q-63 0 -137 23t-130 60zM340 292q13 -85 86 -85q38 0 72.5 23t63.5 66l104 521q-13 29 -39 43t-65 14q-67 0 -119 -86.5t-81 -232.5l-4 -21q-23 -110 -23 -185q0 -31 5 -57z" />
<glyph unicode="h" horiz-adv-x="960" d="M-3 0l312 1560h282l-118 -587l5 -3q49 63 110 97.5t127 34.5q127 0 187 -116q34 -66 34 -170q0 -80 -20 -182l-127 -634h-283l127 636q18 88 18 140q0 32 -7 50q-18 48 -81 48q-33 0 -64.5 -17.5t-58.5 -48.5l-161 -808h-282z" />
<glyph unicode="i" horiz-adv-x="488" d="M18 0l216 1082h281l-216 -1082h-281zM287 1343l43 217h281l-43 -217h-281z" />
<glyph unicode="j" horiz-adv-x="479" d="M-231 -419l57 223q20 -6 35.5 -9t37.5 -3q38 0 69.5 44.5t47.5 130.5l223 1115h282l-223 -1115q-41 -206 -145.5 -305t-262.5 -99q-31 0 -60 4.5t-61 13.5zM287 1343l43 217h281l-43 -217h-281z" />
<glyph unicode="k" horiz-adv-x="934" d="M5 0l312 1560h282l-177 -886h42l244 408h324l-360 -484l190 -598h-322l-119 450h-44l-90 -450h-282z" />
<glyph unicode="l" horiz-adv-x="488" d="M18 0l312 1560h281l-312 -1560h-281z" />
<glyph unicode="m" horiz-adv-x="1444" d="M7 0l216 1082h263l-16 -127q55 72 123.5 109.5t149.5 37.5q70 0 119 -42.5t65 -127.5q56 82 127.5 126t157.5 44q118 0 174 -112q31 -63 31 -160q0 -77 -20 -176l-131 -654h-283l131 654q17 87 17 136q0 26 -5 41q-14 43 -67 43q-34 0 -67.5 -24t-62.5 -67 q-2 -18 -4.5 -36.5t-6.5 -38.5l-142 -708h-281l131 654q17 85 17 134q1 26 -5 42q-14 44 -68 44q-31 0 -63 -20t-61 -56l-159 -798h-280z" />
<glyph unicode="n" horiz-adv-x="960" d="M0 0l216 1082h263l-16 -138q57 76 127 117t145 41q121 0 177 -106q32 -60 31 -157q0 -74 -18 -168l-134 -671h-283l134 671q13 66 13 109q0 34 -8 52q-19 42 -81 42q-32 0 -64 -20t-61 -55l-159 -799h-282z" />
<glyph unicode="o" horiz-adv-x="960" d="M66 473l21 134q36 226 166.5 360.5t332.5 134.5q192 0 284 -140q68 -102 67 -245q0 -52 -9 -110l-21 -134q-37 -228 -168 -361t-331 -133q-194 1 -286 139q-67 100 -66 240q0 54 10 115zM344 274q20 -68 100 -68q73 0 117 72t64 195l21 134q10 64 10 114q0 48 -10 83 q-20 70 -96 70q-74 0 -119.5 -73.5t-63.5 -193.5l-21 -134q-11 -67 -11 -118q0 -48 9 -81z" />
<glyph unicode="p" horiz-adv-x="960" d="M-78 -416l299 1498h262l-9 -82q46 49 98 75.5t109 26.5q153 0 222 -169q40 -99 40 -225q0 -90 -20 -193l-4 -21q-52 -258 -157.5 -386.5t-270.5 -128.5q-59 0 -108 23.5t-82 69.5l-97 -488h-282zM337 250q13 -24 39 -34t69 -10q68 0 115.5 75t76.5 213l4 21 q24 122 24 206q0 31 -3 57q-12 96 -83 96q-38 0 -73 -28t-65 -77z" />
<glyph unicode="q" horiz-adv-x="960" d="M76 534l4 21q54 272 162 409.5t275 137.5q63 0 114 -34t83 -94l40 108h245l-299 -1498h-283l96 483q-44 -43 -92 -65.5t-99 -22.5q-152 0 -223 159q-42 96 -42 218q0 83 19 178zM339 292q13 -86 86 -86q37 0 71 23t63 65l104 521q-13 29 -38.5 44t-62.5 15 q-68 0 -119.5 -86t-80.5 -233l-4 -21q-23 -112 -23 -187q0 -31 4 -55z" />
<glyph unicode="r" horiz-adv-x="638" d="M5 0l216 1082h263l-16 -132l5 -3q38 74 89 114.5t109 40.5q17 0 37.5 -3.5t35.5 -8.5l-82 -267l-104 3q-38 0 -69 -22.5t-54 -62.5l-148 -741h-282z" />
<glyph unicode="s" horiz-adv-x="857" d="M23 335l2 5h259q-4 -26 -3 -48q1 -50 19 -76q28 -38 89 -38q48 0 80.5 28.5t40.5 76.5q2 11 2 21q0 34 -22 59q-28 32 -115 82q-146 61 -212 138q-51 59 -51 145q0 26 5 55q22 137 136 228t282 91q167 0 257 -97q70 -75 70 -179q0 -31 -7 -65l-3 -6h-272q4 25 4 46 q0 38 -12 63q-18 39 -70 39q-38 0 -73 -31.5t-41 -74.5q-2 -13 -3 -25q1 -32 19 -52q24 -28 116 -81q154 -57 219 -137q50 -61 50 -151q0 -28 -5 -58q-24 -143 -141.5 -228.5t-291.5 -85.5q-173 0 -263 110q-70 86 -70 188q0 28 5 58z" />
<glyph unicode="t" horiz-adv-x="632" d="M111 876l41 206h120l54 269h282l-54 -269h140l-41 -206h-140l-108 -543q-8 -39 -8 -65q0 -20 5 -32q12 -26 43 -26q23 0 41 2.5t40 8.5l-22 -216q-47 -14 -87 -20t-91 -6q-124 0 -182 86q-35 53 -36 142q0 56 14 125l109 544h-120z" />
<glyph unicode="u" horiz-adv-x="960" d="M84 428l130 654h282l-131 -656q-16 -77 -16 -125q-1 -27 5 -45q14 -48 66 -49q40 0 76 18t66 52l161 805h283l-216 -1082h-248l7 114q-54 -67 -120 -101t-141 -34q-130 -1 -190 111q-34 63 -34 164q0 76 20 174z" />
<glyph unicode="v" d="M121 1082h295l6 -674l-1 -70l6 -1l23 71l220 674h295l-457 -1082h-276z" />
<glyph unicode="w" horiz-adv-x="1228" d="M152 0l5 1082h262l-26 -585l6 -2l254 587h182l21 -584l6 -1l207 585h261l-426 -1082h-234l-26 562l-6 1l-251 -563h-235z" />
<glyph unicode="x" d="M-51 0l347 547l-168 535h316l41 -339l6 -1l155 340h317l-338 -535l172 -547h-316l-49 349l-5 1l-161 -350h-317z" />
<glyph unicode="y" d="M-81 -413l76 212q13 -3 21 -4.5t16 -1.5q54 0 92 33.5t61 84.5l38 78l-84 1093h303l-11 -615l6 -2l264 617h301l-595 -1245q-62 -116 -143.5 -195t-217.5 -79q-32 0 -59 6t-68 18z" />
<glyph unicode="z" horiz-adv-x="854" d="M-18 0l34 169l526 685h-379l45 228h700l-33 -165l-531 -690h398l-45 -227h-715z" />
<glyph unicode="{" horiz-adv-x="570" d="M58 519l24 151h1l8 51q62 0 103 55.5t57 153.5l33 207q28 177 113.5 292.5t252.5 166.5l6 -1l26 -150q-61 -31 -95 -109t-53 -199l-33 -207q-18 -109 -70.5 -189.5t-140.5 -123.5q72 -47 100 -127t12 -180l-33 -206q-21 -126 -12 -201t62 -106l-79 -158q-151 55 -200 175 t-21 290l33 206q16 102 -6.5 155.5t-87.5 53.5z" />
<glyph unicode="|" horiz-adv-x="461" d="M38 -270l276 1726h161l-276 -1726h-161z" />
<glyph unicode="}" horiz-adv-x="570" d="M-56 -210q62 31 96 109t54 198l33 206q17 109 69.5 189t142.5 123q-73 45 -101.5 125t-11.5 183l33 207q19 124 9.5 200t-61.5 108l78 157q150 -55 199 -175t22 -290l-33 -207q-17 -103 6 -156t90 -53l-9 -54l-15 -94l-9 -54q-64 0 -105.5 -56t-56.5 -153l-33 -206 q-29 -176 -114.5 -292t-251.5 -166h-6z" />
<glyph unicode="~" horiz-adv-x="1075" d="M89 444q27 171 114.5 276t203.5 105q63 0 120.5 -34t103.5 -98q28 -46 51.5 -65.5t54.5 -19.5q32 0 66 53t46 128l188 -28q-28 -170 -118 -276.5t-203 -106.5q-65 0 -119 32.5t-103 101.5q-29 45 -52 64.5t-56 19.5t-66.5 -52t-44.5 -126z" />
<glyph unicode="&#xa2;" horiz-adv-x="997" d="M94 470l22 139q33 206 144 336.5t287 152.5l44 220h182l-47 -234q109 -38 159.5 -144t26.5 -261h-263q14 93 -2.5 144t-71.5 51q-74 0 -116 -73t-61 -192l-22 -139q-21 -129 -4 -196.5t97 -67.5q51 0 84.5 43t46.5 124h256l2 -5q-23 -157 -119 -259t-233 -124l-46 -230 h-182l48 238q-140 36 -201 166t-31 311z" />
<glyph unicode="&#xa3;" horiz-adv-x="1019" d="M60 0l45 227h7q35 12 68 94.5t51 171.5l17 98h-120l44 225h113l35 209q45 225 166.5 338.5t295.5 113.5q170 0 255.5 -115.5t48.5 -300.5h-282q20 103 -1.5 145t-64.5 36l-6 1q-36 4 -72.5 -54.5t-56.5 -163.5l-34 -209h260l-44 -225h-252l-13 -82q-17 -83 -58.5 -154.5 t-104.5 -127.5h566l-45 -227h-818z" />
<glyph unicode="&#xa5;" horiz-adv-x="1044" d="M86 226l38 200h253l23 111h-253l40 200h202l-158 719h307l80 -543l6 -1l295 544h307l-445 -719h175l-40 -200h-235l-23 -111h235l-38 -200h-236l-45 -226h-281l45 226h-252z" />
<glyph unicode="&#xa8;" horiz-adv-x="974" d="M273 1258l32 198h245l-32 -198h-245zM703 1258l32 198h245l-32 -198h-245z" />
<glyph unicode="&#xa9;" horiz-adv-x="1376" d="M129 729q52 327 258.5 537t459.5 210q239 0 384 -217.5t96 -529.5q-53 -328 -260.5 -539t-458.5 -211q-240 0 -385 218.5t-94 531.5zM238 729q-45 -277 68.5 -454t320.5 -176q196 -1 371.5 183t218.5 447q43 275 -70 451t-319 176q-197 0 -373 -183t-217 -444zM408 669 l19 119q28 179 124 283t235 104q130 0 196 -81t42 -233h-142q16 100 -13.5 142.5t-103.5 43.5q-73 -1 -126 -72.5t-71 -185.5l-19 -120q-20 -122 9 -190.5t106 -68.5q70 0 114 44t60 142h134l2 -6q-22 -156 -108 -232t-223 -76q-132 0 -197.5 107t-37.5 280z" />
<glyph unicode="&#xab;" horiz-adv-x="878" d="M71 507l1 6l3 13l299 389h173l-263 -399l104 -397h-173zM411 507l1 6l3 13l299 389h173l-263 -399l104 -397h-173z" />
<glyph unicode="&#xad;" horiz-adv-x="734" d="M140 511l46 228h478l-46 -228h-478z" />
<glyph unicode="&#xae;" horiz-adv-x="1376" d="M129 729q52 327 259 537t460 210q239 0 384 -218t96 -529q-53 -328 -260.5 -539t-458.5 -211q-240 0 -385.5 218.5t-94.5 531.5zM239 729q-45 -277 68.5 -454t320.5 -176q195 -1 370.5 183t218.5 447q43 275 -69.5 451t-318.5 176q-197 0 -373 -183t-217 -444zM407 316 l136 850h242q124 0 189.5 -68.5t46.5 -192.5q-10 -61 -42 -104.5t-85 -72.5q45 -30 60 -85t4 -128l-9 -56q-7 -43 -9 -74.5t2 -52.5l-2 -16h-140q-4 22 0.5 63.5t11.5 80.5l8 54q12 75 -9.5 108t-83.5 33h-128l-54 -339h-138zM619 783h104q60 0 106 31.5t56 89.5 q11 77 -15.5 105.5t-105.5 28.5h-104z" />
<glyph unicode="&#xb4;" horiz-adv-x="673" d="M225 1212l209 266h295l2 -6l-280 -260h-226z" />
<glyph unicode="&#xb8;" horiz-adv-x="483" d="M-47 -454l26 155q28 0 49 21t30 63q8 45 -11 60.5t-76 20.5l54 141h211l-20 -59q45 -11 69.5 -52.5t9.5 -120.5q-24 -115 -110.5 -175t-226.5 -58z" />
<glyph unicode="&#xbb;" horiz-adv-x="879" d="M5 152l263 398l-103 399h173l143 -389l-2 -6h1l-3 -13l-299 -389h-173zM356 152l263 398l-103 399h173l143 -389l-2 -6h1l-3 -13l-299 -389h-173z" />
<glyph unicode="&#x2c6;" d="M282 1252l5 25l290 237h155l200 -240l-5 -22h-219l-80 134l-132 -134h-214z" />
<glyph unicode="&#x2da;" horiz-adv-x="601" d="M289 1299q16 85 80.5 137.5t145.5 52.5q72 0 117 -55.5t30 -134.5q-18 -87 -80 -136.5t-142 -49.5q-75 0 -121.5 53.5t-29.5 132.5zM395 1299q-9 -45 8.5 -70t54.5 -25q34 0 62 26.5t37 68.5q8 46 -8 71.5t-53 25.5q-34 0 -63.5 -27.5t-37.5 -69.5z" />
<glyph unicode="&#x2dc;" horiz-adv-x="844" d="M246 1272q15 96 74.5 162.5t135.5 66.5q40 0 114.5 -44t117.5 -44q24 0 48 33t32 80l138 -45q-17 -99 -75.5 -163.5t-135.5 -64.5q-53 0 -121 44t-110 44q-24 0 -47.5 -33t-30.5 -79z" />
<glyph unicode="&#x400;" horiz-adv-x="971" d="M22 0l291 1456h823l-45 -228h-541l-72 -362h460l-45 -227h-460l-83 -412h542l-45 -227h-825zM439 1825h302l124 -266h-226z" />
<glyph unicode="&#x401;" horiz-adv-x="971" d="M22 0l291 1456h823l-45 -228h-541l-72 -362h460l-45 -227h-460l-83 -412h542l-45 -227h-825zM392 1606l32 198h245l-32 -198h-245zM822 1606l32 198h245l-32 -198h-245z" />
<glyph unicode="&#x402;" horiz-adv-x="1262" d="M190 1228l45 228h920l-45 -228h-360l-72 -363q52 13 96 21t85 8q193 0 295.5 -116.5t58.5 -337.5q-41 -202 -174.5 -329t-373.5 -123l-5 3l41 205q108 0 157 65t70 164q22 110 -6.5 175t-108.5 65q-45 0 -88 -5t-91 -13l-129 -647h-283l245 1228h-277z" />
<glyph unicode="&#x403;" horiz-adv-x="948" d="M23 0l291 1456h786l-45 -228h-503l-246 -1228h-283zM590 1560l209 266h295l2 -6l-280 -260h-226z" />
<glyph unicode="&#x404;" horiz-adv-x="1046" d="M102 585l58 290q57 289 203 446t356 157q213 0 325 -141.5t81 -385.5h-281q24 148 -10.5 223.5t-141.5 75.5q-82 0 -150 -103t-101 -270l-7 -33h330l-46 -227h-329l-6 -32q-37 -179 -2 -278.5t135 -99.5q89 0 144 69.5t92 219.5h273l2 -6q-60 -251 -188 -380.5 t-342 -129.5q-206 0 -326.5 173t-68.5 432z" />
<glyph unicode="&#x405;" horiz-adv-x="1071" d="M93 424l2 5h275q-26 -127 28.5 -175t144.5 -48q52 0 102 42.5t63 104.5q19 99 -16.5 148.5t-144.5 108.5q-201 82 -292.5 195.5t-55.5 294.5q36 180 171 278.5t321 98.5q198 0 306 -120t63 -326l-2 -5h-275q20 102 -18 162.5t-119 60.5q-54 0 -103 -43t-61 -104 q-19 -94 21 -140t176 -113q185 -77 267 -191t44 -303q-38 -187 -171 -281.5t-321 -94.5q-194 0 -324.5 108.5t-80.5 336.5z" />
<glyph unicode="&#x406;" horiz-adv-x="523" d="M35 0l291 1456h281l-291 -1456h-281z" />
<glyph unicode="&#x407;" horiz-adv-x="523" d="M35 0l291 1456h281l-291 -1456h-281zM162 1606l32 198h245l-32 -198h-245zM592 1606l32 198h245l-32 -198h-245z" />
<glyph unicode="&#x408;" horiz-adv-x="980" d="M53 427h283q-25 -123 1.5 -172t84.5 -49q49 0 101 64t74 174l202 1012h281l-202 -1012q-47 -229 -184 -347t-317 -118q-178 0 -273 114.5t-51 333.5z" />
<glyph unicode="&#x409;" horiz-adv-x="1765" d="M-41 0l45 227h31q109 0 175.5 125t128.5 450l125 654h828l-102 -507h171q192 0 297.5 -135.5t65.5 -338.5q-45 -223 -194 -349t-359 -126h-451l245 1228h-262l-82 -426q-82 -427 -239 -614.5t-388 -187.5h-35zM1046 227h170q76 0 140.5 74t85.5 176q21 107 -11.5 176 t-115.5 69h-170z" />
<glyph unicode="&#x40a;" horiz-adv-x="1765" d="M23 0l291 1456h282l-124 -620h415l124 620h282l-103 -516h169q193 0 299 -133.5t66 -335.5q-44 -220 -193 -345.5t-360 -125.5h-451l121 609h-415l-121 -609h-282zM1048 228h169q77 0 141 72.5t85 172.5q21 106 -12 173t-117 67h-169z" />
<glyph unicode="&#x40b;" horiz-adv-x="1286" d="M198 1228l45 228h894l-45 -228h-356l-64 -319q40 6 79 10t66 4q210 0 317.5 -120.5t60.5 -359.5l-89 -443h-281l89 443q29 151 -5 202t-138 51q-25 0 -64.5 -4t-79.5 -10l-136 -682h-283l245 1228h-255z" />
<glyph unicode="&#x40c;" horiz-adv-x="1095" d="M22 0l291 1456h282l-119 -594h87l325 594h370l-496 -722l217 -734h-324l-148 602h-83l-120 -602h-282zM567 1560l209 266h295l2 -6l-280 -260h-226z" />
<glyph unicode="&#x40d;" horiz-adv-x="1178" d="M11 0l291 1456h282l-176 -880l6 -2l583 882h282l-291 -1456h-282l175 878l-6 2l-582 -880h-282zM530 1825h302l124 -266h-226z" />
<glyph unicode="&#x40e;" horiz-adv-x="1070" d="M149 -17l40 227q7 -2 27 -3t34 -1q57 0 96.5 36.5t69.5 108.5l23 49h-3l-194 1056h301l80 -661v-11l328 672h295l-618 -1173q-87 -146 -174.5 -225t-218.5 -79q-18 0 -44.5 1.5t-41.5 2.5zM515 1892l2 5h206q-9 -54 9 -87.5t67 -33.5q45 0 73 34t37 87h206l2 -6 q-17 -134 -111 -212t-235 -78q-136 0 -208.5 81.5t-47.5 209.5z" />
<glyph unicode="&#x40f;" horiz-adv-x="1181" d="M8 0l291 1456h281l-246 -1229h417l246 1229h282l-291 -1456h-338l-71 -359h-282l71 359h-360z" />
<glyph unicode="&#x410;" horiz-adv-x="1095" d="M-65 0l679 1456h293l96 -1456h-284l-13 309h-351l-136 -309h-284zM455 538h242l-19 491l-6 1z" />
<glyph unicode="&#x411;" horiz-adv-x="1060" d="M21 0l291 1456h786l-45 -228h-503l-62 -308h168q197 0 303.5 -126.5t66.5 -328.5q-45 -222 -193 -343.5t-361 -121.5h-451zM349 227h168q78 0 142.5 69.5t84.5 170.5q21 105 -13 165.5t-120 60.5h-168z" />
<glyph unicode="&#x412;" horiz-adv-x="1097" d="M22 0l291 1456h414q203 0 310.5 -102t69.5 -296q-23 -110 -81.5 -188.5t-153.5 -116.5q104 -28 136.5 -117.5t9.5 -210.5q-45 -223 -177.5 -324t-351.5 -101h-467zM350 227h184q77 0 130 50.5t73 148.5q22 111 -0.5 163.5t-100.5 52.5h-203zM473 841h141q76 2 130.5 51.5 t73.5 138.5q21 109 -12 153t-124 44h-131z" />
<glyph unicode="&#x413;" horiz-adv-x="948" d="M23 0l291 1456h786l-45 -228h-503l-246 -1228h-283z" />
<glyph unicode="&#x414;" horiz-adv-x="1274" d="M-113 -357l96 584h92q73 56 143.5 202t136.5 441l153 586h803l-246 -1229h143l-143 -584h-256l71 357h-660l-71 -357h-262zM374 227h410l200 1001h-253l-93 -358q-52 -227 -118.5 -382.5t-145.5 -260.5z" />
<glyph unicode="&#x415;" horiz-adv-x="971" d="M22 0l291 1456h823l-45 -228h-541l-72 -362h460l-45 -227h-460l-83 -412h542l-45 -227h-825z" />
<glyph unicode="&#x416;" horiz-adv-x="1728" d="M-60 0l516 804l-209 652h350l110 -594h115l119 594h282l-119 -594h112l340 594h349l-462 -650l186 -806h-350l-95 604h-132l-120 -604h-282l120 604h-135l-344 -604h-351z" />
<glyph unicode="&#x417;" horiz-adv-x="1053" d="M64 399l2 5h275q-19 -91 15 -144.5t108 -53.5q76 0 137.5 58t79.5 146q25 124 -4.5 173t-111.5 49h-145l31 152l14 69h145q68 0 116 54.5t68 150.5q17 88 -12.5 139.5t-108.5 51.5q-61 0 -114.5 -51.5t-69.5 -134.5h-273l-2 6q34 195 176.5 301.5t327.5 106.5 q191 0 294 -110t64 -305q-22 -108 -87 -191t-160 -128q85 -45 121.5 -131t12.5 -206q-43 -214 -189 -320.5t-355 -106.5q-171 0 -285.5 108.5t-69.5 311.5z" />
<glyph unicode="&#x418;" horiz-adv-x="1178" d="M11 0l291 1456h282l-176 -880l6 -2l583 882h282l-291 -1456h-282l175 878l-6 2l-582 -880h-282z" />
<glyph unicode="&#x419;" horiz-adv-x="1178" d="M11 0l291 1456h282l-176 -880l6 -2l583 882h282l-291 -1456h-282l175 878l-6 2l-582 -880h-282zM566 1892l2 5h206q-9 -54 9 -87.5t67 -33.5q45 0 73 34t37 87h206l2 -6q-17 -134 -111 -212t-235 -78q-136 0 -208.5 81.5t-47.5 209.5z" />
<glyph unicode="&#x41a;" horiz-adv-x="1095" d="M22 0l291 1456h282l-119 -594h87l325 594h370l-496 -722l217 -734h-324l-148 602h-83l-120 -602h-282z" />
<glyph unicode="&#x41b;" horiz-adv-x="1194" d="M-38 0l45 227h32q111 11 167 126.5t120 448.5l125 654h841l-291 -1456h-281l245 1228h-276l-81 -426q-83 -429 -226 -615.5t-354 -186.5h-66z" />
<glyph unicode="&#x41c;" horiz-adv-x="1421" d="M17 0l291 1456h366l24 -1067l6 -1l453 1068h368l-291 -1456h-281l85 423l129 533l-6 2l-444 -958h-187l-59 947l-6 1l-82 -525l-85 -423h-281z" />
<glyph unicode="&#x41d;" horiz-adv-x="1193" d="M22 0l291 1456h283l-125 -626h415l125 626h281l-291 -1456h-281l120 603h-415l-120 -603h-283z" />
<glyph unicode="&#x41e;" horiz-adv-x="1121" d="M114 600l52 259q58 290 212.5 454t376.5 164q211 0 337 -181t74 -441l-52 -259q-58 -289 -218 -453t-384 -164q-209 0 -330 179.5t-68 441.5zM394 600q-36 -180 9 -286.5t154 -106.5q95 0 168 107.5t108 281.5l52 261q36 177 -14.5 284t-160.5 107q-94 0 -161.5 -106 t-102.5 -281z" />
<glyph unicode="&#x41f;" horiz-adv-x="1193" d="M22 0l291 1456h980l-291 -1456h-281l246 1228h-416l-246 -1228h-283z" />
<glyph unicode="&#x420;" horiz-adv-x="1119" d="M22 0l291 1456h488q194 0 296 -131.5t62 -335.5q-45 -223 -189.5 -345t-355.5 -122h-205l-104 -522h-283zM455 750h205q77 0 137 68.5t80 168.5q22 111 -7.5 176t-113.5 65h-205z" />
<glyph unicode="&#x421;" horiz-adv-x="1045" d="M109 584l58 290q57 289 203 446t356 157q213 0 325 -141.5t81 -385.5h-281q24 148 -10.5 223.5t-141.5 75.5q-82 0 -150 -103t-101 -270l-58 -292q-37 -179 -2 -278.5t135 -99.5q89 0 144 69.5t92 219.5h273l2 -6q-60 -251 -188 -380.5t-342 -129.5q-206 0 -326.5 173 t-68.5 432z" />
<glyph unicode="&#x422;" horiz-adv-x="955" d="M193 1228l45 228h893l-45 -228h-308l-245 -1228h-281l245 1228h-304z" />
<glyph unicode="&#x423;" horiz-adv-x="1070" d="M149 -17l40 227q7 -2 27 -3t34 -1q57 0 96.5 36.5t69.5 108.5l23 49h-3l-194 1056h301l80 -661v-11l328 672h295l-618 -1173q-87 -146 -174.5 -225t-218.5 -79q-18 0 -44.5 1.5t-41.5 2.5z" />
<glyph unicode="&#x424;" horiz-adv-x="1419" d="M130 719q57 290 226.5 448.5t396.5 158.5l38 190h281l-38 -190q205 -3 317 -171.5t60 -433.5q-57 -282 -224.5 -436.5t-391.5 -155.5l-38 -189h-281l38 189q-208 0 -322.5 164.5t-61.5 425.5zM406 719q-36 -177 7 -261t145 -76l6 1l138 688l-6 2q-91 7 -174 -88.5 t-116 -265.5zM845 385l6 -3q90 -7 170.5 84.5t113.5 254.5q37 184 -3.5 271.5t-142.5 80.5h-6z" />
<glyph unicode="&#x425;" horiz-adv-x="1088" d="M-40 0l458 734l-217 722h324l95 -508l6 -1l261 509h326l-449 -722l239 -734h-340l-101 519l-6 1l-268 -520h-328z" />
<glyph unicode="&#x426;" horiz-adv-x="1300" d="M10 0l291 1456h281l-246 -1229h415l246 1229h283l-246 -1230h172l-134 -577h-262l70 351h-870z" />
<glyph unicode="&#x427;" horiz-adv-x="1189" d="M234 1014l88 442h281l-88 -442q-31 -152 3 -202.5t139 -50.5q36 0 99 7.5t114 19.5l134 668h283l-291 -1456h-283l112 562q-52 -13 -113.5 -20.5t-99.5 -7.5q-211 0 -318.5 120t-59.5 360z" />
<glyph unicode="&#x428;" horiz-adv-x="1624" d="M20 0l291 1456h283l-246 -1229h286l246 1229h281l-246 -1229h281l246 1229h283l-291 -1456h-1414z" />
<glyph unicode="&#x429;" horiz-adv-x="1760" d="M20 0l291 1456h283l-246 -1229h286l246 1229h281l-246 -1229h281l246 1229h283l-246 -1230h179l-134 -576h-262l70 350h-1312z" />
<glyph unicode="&#x42a;" horiz-adv-x="1299" d="M204 1229l45 227h585l-107 -536h169q197 0 303.5 -126.5t66.5 -328.5q-45 -222 -193 -343.5t-361 -121.5h-450l245 1229h-303zM588 227h169q78 0 142.5 69.5t84.5 170.5q21 105 -13 165.5t-120 60.5h-170z" />
<glyph unicode="&#x42b;" horiz-adv-x="1484" d="M24 0l291 1456h281l-107 -536h169q197 0 303.5 -126.5t66.5 -328.5q-45 -222 -193 -343.5t-361 -121.5h-450zM350 227h169q78 0 142.5 69.5t84.5 170.5q21 105 -13 165.5t-120 60.5h-170zM1009 0l291 1456h281l-291 -1456h-281z" />
<glyph unicode="&#x42c;" horiz-adv-x="1066" d="M22 0l291 1456h281l-107 -536h169q197 0 303.5 -126.5t66.5 -328.5q-45 -222 -193 -343.5t-361 -121.5h-450zM348 227h169q78 0 142.5 69.5t84.5 170.5q21 105 -13 165.5t-120 60.5h-170z" />
<glyph unicode="&#x42d;" horiz-adv-x="1044" d="M69 482h282q-31 -153 -4.5 -214t119.5 -61q82 0 145.5 102.5t97.5 271.5l8 40h-339l46 228h339l5 25q36 185 16 280.5t-109 95.5q-85 0 -140.5 -67.5t-83.5 -209.5h-273l-2 6q47 255 186 377t359 122q193 0 287.5 -170t42.5 -434l-58 -291q-58 -287 -209.5 -445 t-362.5 -158q-202 0 -301.5 130.5t-50.5 371.5z" />
<glyph unicode="&#x42e;" horiz-adv-x="1607" d="M27 0l291 1456h281l-129 -645h116l10 48q58 290 212.5 454t376.5 164q211 0 337 -181t74 -441l-52 -259q-58 -289 -218 -453t-384 -164q-206 0 -326.5 174t-74.5 430h-117l-116 -583h-281zM824 600q-36 -180 9 -286.5t154 -106.5q95 0 168 107.5t108 281.5l52 261 q36 177 -14.5 284t-160.5 107q-94 0 -161.5 -106t-102.5 -281z" />
<glyph unicode="&#x42f;" horiz-adv-x="1007" d="M-119 0l375 635q-75 58 -99.5 148.5t3.5 224.5q42 212 189.5 330t342.5 118h423l-291 -1456h-282l107 533h-149l-315 -533h-304zM439 993q-23 -110 9.5 -178.5t110.5 -68.5h132l97 482h-141q-82 0 -133 -56.5t-75 -178.5z" />
<glyph unicode="&#x430;" horiz-adv-x="911" d="M33 302q34 170 146 252.5t309 82.5h96l18 88q16 84 0 124t-68 40q-39 0 -68 -35t-41 -98l-273 1l-2 6q26 151 148 245t297 94q152 0 238.5 -100t51.5 -279l-88 -438q-17 -84 -19.5 -150t6.5 -135h-280q-6 27 -8.5 58t-2.5 64q-50 -65 -110.5 -104t-131.5 -39 q-120 0 -183.5 89.5t-34.5 233.5zM318 315q-12 -58 4 -90t54 -32q36 0 72.5 22t63.5 58l40 201h-96q-53 0 -89 -45.5t-49 -113.5z" />
<glyph unicode="&#x431;" horiz-adv-x="977" d="M86 492l3 23q0 2 1 6.5t2 6.5l18 113q57 358 202.5 553t329.5 237q66 17 104 44t47 83h217l2 -6q-28 -198 -114 -258t-287 -96q-81 -17 -136 -81.5t-86 -177.5l4 -4q47 38 103.5 61.5t114.5 23.5q182 0 267.5 -142t50.5 -363l-3 -23q-39 -238 -169.5 -375.5 t-331.5 -137.5q-193 0 -284 143.5t-55 369.5zM363.5 281q18.5 -73 95.5 -68l6 -1q70 -5 113.5 72t65.5 208l3 23q21 132 2.5 205t-96.5 73q-73 0 -117.5 -77t-64.5 -201l-3 -23q-23 -138 -4.5 -211z" />
<glyph unicode="&#x432;" horiz-adv-x="962" d="M22 0l216 1082h379q167 0 256 -77.5t60 -223.5q-17 -81 -71.5 -139.5t-140.5 -87.5q103 -24 143.5 -90.5t22.5 -156.5q-33 -162 -139.5 -234.5t-290.5 -72.5h-435zM349 225h153q43 0 70.5 28t38.5 84q12 60 -0.5 87.5t-63.5 27.5h-153zM432 639h103q44 0 71.5 26t38.5 78 q12 63 -5.5 88t-67.5 25h-97z" />
<glyph unicode="&#x433;" horiz-adv-x="716" d="M1 0l216 1082h615l-45 -228h-333l-171 -854h-282z" />
<glyph unicode="&#x434;" horiz-adv-x="1102" d="M-91 -325l86 553h79q108 100 149.5 197.5t83.5 300.5l72 356h686l-171 -855h138l-129 -552h-263l65 325h-467l-65 -325h-264zM374 227h239l125 624h-124l-25 -125q-39 -163 -93.5 -287t-121.5 -212z" />
<glyph unicode="&#x435;" horiz-adv-x="907" d="M73 451l24 152q36 227 163 363t318 136q176 0 258.5 -128.5t48.5 -344.5l-28 -174h-504v-4q-18 -111 15 -178t125 -67q72 0 124.5 18.5t123.5 59.5l42 -181q-62 -54 -157 -89t-203 -35q-189 0 -286 135t-64 337zM384 645h226l7 40q15 94 -1.5 141.5t-73.5 47.5 q-58 0 -97 -62.5t-61 -166.5z" />
<glyph unicode="&#x436;" horiz-adv-x="1491" d="M-51 0l369 590l-149 492h358l59 -407h72l82 407h282l-82 -407h77l220 407h358l-345 -492l133 -590h-361l-46 404h-90l-80 -404h-282l80 404h-87l-207 -404h-361z" />
<glyph unicode="&#x437;" horiz-adv-x="879" d="M44 313l2 5h274q-12 -60 6.5 -93.5t75.5 -33.5q47 0 79 39t44 97q15 75 -3 105.5t-68 30.5h-123l10 54l10 48l4 21l12 57h123q40 0 67.5 32.5t39.5 88.5q11 58 0.5 91.5t-56.5 33.5q-42 0 -74.5 -31.5t-42.5 -85.5h-273l-2 6q27 156 143.5 239t274.5 83q164 0 254 -83 t61 -230q-16 -79 -64 -140t-120 -94q66 -34 93.5 -97.5t10.5 -151.5q-32 -161 -155.5 -242t-303.5 -81q-144 0 -240 86.5t-59 245.5z" />
<glyph unicode="&#x438;" horiz-adv-x="963" d="M1 0l216 1082h283l-112 -562l5 -3l334 565h282l-216 -1082h-282l112 563l-5 3l-334 -566h-283z" />
<glyph unicode="&#x439;" horiz-adv-x="963" d="M1 0l216 1082h283l-112 -562l5 -3l334 565h282l-216 -1082h-282l112 563l-5 3l-334 -566h-283zM396 1549l2 5h206q-9 -54 9 -87.5t67 -33.5q45 0 73 34t37 87h206l2 -6q-17 -134 -111 -212t-235 -78q-136 0 -208.5 81.5t-47.5 209.5z" />
<glyph unicode="&#x43a;" horiz-adv-x="982" d="M22 0l216 1082h282l-82 -409h68l223 409h356l-362 -492l168 -590h-376l-63 402h-68l-80 -402h-282z" />
<glyph unicode="&#x43b;" horiz-adv-x="965" d="M-61 0l42 230h24q73 0 109.5 79.5t83.5 308.5l92 464h720l-216 -1082h-282l170 854h-154l-47 -236q-69 -340 -180.5 -479t-323.5 -139h-38z" />
<glyph unicode="&#x43c;" horiz-adv-x="1296" d="M22 0l216 1082h347l32 -739l6 -1l331 740h355l-216 -1082h-283l107 537l-5 2l-265 -539h-188l-47 511l-6 1l-102 -512h-282z" />
<glyph unicode="&#x43d;" horiz-adv-x="963" d="M1 0l216 1082h282l-87 -436h225l87 436h283l-216 -1082h-283l84 420h-225l-84 -420h-282z" />
<glyph unicode="&#x43e;" horiz-adv-x="960" d="M66 473l21 134q36 226 166.5 360.5t332.5 134.5q191 0 283.5 -140t58.5 -355l-21 -134q-37 -228 -168 -361t-331 -133q-193 0 -285.5 138.5t-56.5 355.5zM344.5 274.5q19.5 -68.5 99.5 -68.5q73 0 117 72t64 195l21 134q20 127 0.5 197t-96.5 70q-74 0 -119.5 -73.5 t-63.5 -193.5l-21 -134q-21 -130 -1.5 -198.5z" />
<glyph unicode="&#x43f;" horiz-adv-x="963" d="M1 0l216 1082h792l-216 -1082h-283l170 854h-227l-170 -854h-282z" />
<glyph unicode="&#x440;" horiz-adv-x="960" d="M-78 -416l299 1498h262l-9 -82q46 49 98 75.5t109 26.5q153 0 222 -169t20 -418l-4 -21q-52 -258 -157.5 -386.5t-270.5 -128.5q-59 0 -108 23.5t-82 69.5l-97 -488h-282zM337 250q13 -24 39 -34t69 -10q68 0 115.5 75t76.5 213l4 21q33 166 21 262.5t-83 96.5 q-38 0 -73 -28t-65 -77z" />
<glyph unicode="&#x441;" horiz-adv-x="878" d="M58 470l22 139q36 224 164.5 358.5t330.5 134.5q162 0 246.5 -114.5t54.5 -308.5h-263q14 93 -2.5 144t-71.5 51q-74 0 -116 -73t-61 -192l-22 -139q-21 -129 -4 -196.5t97 -67.5q51 0 84.5 43t46.5 124h255l2 -6q-26 -177 -144 -282.5t-280 -105.5q-193 0 -283.5 138.5 t-55.5 352.5z" />
<glyph unicode="&#x442;" horiz-adv-x="884" d="M120 856l45 226h814l-45 -226h-266l-171 -856h-284l171 856h-264z" />
<glyph unicode="&#x443;" d="M-81 -413l76 212q13 -3 21 -4.5t16 -1.5q54 0 92 33.5t61 84.5l38 78l-84 1093h303l-11 -615l6 -2l264 617h301l-595 -1245q-62 -116 -143.5 -195t-217.5 -79q-32 0 -59 6t-68 18z" />
<glyph unicode="&#x444;" horiz-adv-x="1236" d="M73 514l4 21q54 272 166.5 419.5t272.5 147.5q25 0 47 -5.5t42 -14.5l96 478h283l-96 -477q24 9 49 14t52 5q145 0 203.5 -158.5t9.5 -408.5l-4 -21q-52 -258 -163 -396.5t-269 -138.5q-27 0 -50.5 5.5t-43.5 14.5l-83 -415h-283l82 412q-23 -8 -48 -12.5t-50 -4.5 q-145 0 -205 149t-12 386zM333.5 283q10.5 -77 75.5 -77h12t10 1l133 666q-3 0 -9.5 0.5t-9.5 0.5q-59 0 -107.5 -94.5t-78.5 -244.5l-4 -21q-32 -154 -21.5 -231zM713 207q5 -1 10 -1h14q58 0 103.5 83.5t74.5 224.5l4 21q32 163 22.5 251t-72.5 88q-6 0 -10 -0.5t-13 -1.5 z" />
<glyph unicode="&#x445;" d="M-51 0l347 547l-168 535h316l41 -339l6 -1l155 340h317l-338 -535l172 -547h-316l-49 349l-5 1l-161 -350h-317z" />
<glyph unicode="&#x446;" horiz-adv-x="1053" d="M1 0l216 1082h282l-171 -855h227l171 855h283l-171 -857h146l-128 -546h-262l64 321h-657z" />
<glyph unicode="&#x447;" horiz-adv-x="952" d="M141 746l67 336h281l-67 -336q-23 -117 1 -152.5t106 -35.5q19 0 39 2.5t43 8.5l103 513h283l-216 -1082h-283l68 340q-23 -5 -44 -7t-39 -2q-192 0 -288.5 102t-53.5 313z" />
<glyph unicode="&#x448;" horiz-adv-x="1411" d="M1 0l216 1082h282l-171 -855h187l171 855h282l-171 -855h190l171 855h281l-216 -1082h-1222z" />
<glyph unicode="&#x449;" horiz-adv-x="1572" d="M-1 0l216 1082h282l-171 -855h187l171 855h282l-171 -855h190l171 855h281l-171 -856h200l-128 -547h-263l64 321h-1140z" />
<glyph unicode="&#x44a;" horiz-adv-x="1129" d="M126 854l45 228h522l-64 -319h134q173 0 263.5 -107t57.5 -277q-36 -180 -161 -279.5t-313 -99.5h-416l170 854h-238zM522 225h133q55 0 94.5 44t53.5 110q14 74 -6 116t-80 42h-133z" />
<glyph unicode="&#x44b;" horiz-adv-x="1440" d="M22 0l216 1082h283l-64 -319h134q173 0 263.5 -107t57.5 -277q-36 -180 -161 -279.5t-313 -99.5h-416zM350 225h133q55 0 94.5 44t53.5 110q14 74 -6 116t-80 42h-133zM954 0l216 1082h283l-216 -1082h-283z" />
<glyph unicode="&#x44c;" horiz-adv-x="961" d="M22 0l216 1082h283l-64 -319h134q173 0 263.5 -107t57.5 -277q-36 -180 -161 -279.5t-313 -99.5h-416zM350 225h133q55 0 94.5 44t53.5 110q14 74 -6 116t-80 42h-133z" />
<glyph unicode="&#x44d;" horiz-adv-x="873" d="M44 402h265q-19 -96 -5 -146t69 -50q61 0 105.5 68.5t74.5 184.5h-179l34 169h179q19 120 2.5 183t-83.5 63q-50 0 -85 -44t-50 -122h-257l-2 6q32 180 154 284t285 104q185 0 268.5 -156.5t36.5 -391.5l-6 -28q-52 -257 -186.5 -402t-335.5 -145q-158 0 -240 115 t-44 308z" />
<glyph unicode="&#x44e;" horiz-adv-x="1366" d="M26 0l216 1082h283l-84 -419h64q45 203 172 321t316 118q191 0 283.5 -140t58.5 -355l-21 -134q-37 -228 -168 -361t-331 -133q-185 0 -277.5 127t-69.5 330h-72l-87 -436h-283zM751.5 274.5q19.5 -68.5 99.5 -68.5q73 0 117 72t64 195l21 134q20 127 0.5 197t-96.5 70 q-74 0 -119.5 -73.5t-63.5 -193.5l-21 -134q-21 -130 -1.5 -198.5z" />
<glyph unicode="&#x44f;" horiz-adv-x="958" d="M-53 0l283 433q-71 45 -101.5 120t-11.5 167q33 169 157.5 265.5t307.5 96.5h399l-216 -1082h-282l75 375h-85l-243 -375h-283zM396 711q-12 -60 10 -100.5t78 -40.5h113l57 286h-117q-49 0 -89.5 -45t-51.5 -100z" />
<glyph unicode="&#x450;" horiz-adv-x="907" d="M73 451l24 152q36 227 163 363t318 136q176 0 258.5 -128.5t48.5 -344.5l-28 -174h-504v-4q-18 -111 15 -178t125 -67q72 0 124.5 18.5t123.5 59.5l42 -181q-62 -54 -157 -89t-203 -35q-189 0 -286 135t-64 337zM293 1504h302l124 -266h-226zM384 645h226l7 40 q15 94 -1.5 141.5t-73.5 47.5q-58 0 -97 -62.5t-61 -166.5z" />
<glyph unicode="&#x451;" horiz-adv-x="907" d="M73 451l24 152q36 227 163 363t318 136q176 0 258.5 -128.5t48.5 -344.5l-28 -174h-504v-4q-18 -111 15 -178t125 -67q72 0 124.5 18.5t123.5 59.5l42 -181q-62 -54 -157 -89t-203 -35q-189 0 -286 135t-64 337zM248 1285l32 198h245l-32 -198h-245zM384 645h226l7 40 q15 94 -1.5 141.5t-73.5 47.5q-58 0 -97 -62.5t-61 -166.5zM678 1285l32 198h245l-32 -198h-245z" />
<glyph unicode="&#x452;" horiz-adv-x="962" d="M-3 0l238 1193h-104l35 175h104l39 192h282l-39 -192h171l-35 -175h-171l-44 -220l5 -4q48 64 109.5 98.5t127.5 34.5q128 0 187.5 -116.5t13.5 -351.5l-34 -166h2l-101 -502q-41 -206 -146 -304.5t-263 -98.5q-32 0 -61.5 4t-57.5 13l55 223q21 -6 37 -9.5t38 -3.5 q36 0 67 46.5t48 129.5l7 34h-1l127 636q29 143 11 190.5t-81 47.5q-34 0 -65 -17.5t-58 -49.5l-161 -807h-282z" />
<glyph unicode="&#x453;" horiz-adv-x="716" d="M1 0l216 1082h615l-45 -228h-333l-171 -854h-282zM375 1217l209 266h295l2 -6l-280 -260h-226z" />
<glyph unicode="&#x454;" horiz-adv-x="874" d="M57 470l22 139q36 224 164.5 358.5t330.5 134.5q162 0 246.5 -114.5t54.5 -308.5h-263q14 93 -2.5 144t-71.5 51q-74 0 -116 -72t-61 -189h206l-34 -169h-198q-17 -115 2 -176.5t95 -61.5q51 0 84.5 43t46.5 124h255l2 -6q-26 -177 -144 -282.5t-280 -105.5 q-193 0 -283.5 138.5t-55.5 352.5z" />
<glyph unicode="&#x455;" horiz-adv-x="857" d="M23 335l2 5h259q-12 -87 15.5 -124.5t89.5 -37.5q48 0 80.5 28.5t40.5 76.5t-19.5 80t-115.5 82q-146 61 -212 138t-46 200q22 137 136 228t282 91q166 0 256.5 -97t63.5 -244l-3 -6h-272q10 70 -8 109t-70 39q-38 0 -73 -31.5t-41 -74.5q-9 -49 15.5 -77.5t116.5 -80.5 q154 -58 219 -137.5t45 -208.5q-24 -143 -141.5 -228.5t-291.5 -85.5q-173 0 -263 110t-65 246z" />
<glyph unicode="&#x456;" horiz-adv-x="488" d="M18 0l216 1082h281l-216 -1082h-281zM287 1343l43 217h281l-43 -217h-281z" />
<glyph unicode="&#x457;" horiz-adv-x="507" d="M26 0l216 1082h283l-216 -1082h-283zM85 1263l32 198h245l-32 -198h-245zM515 1263l32 198h245l-32 -198h-245z" />
<glyph unicode="&#x458;" horiz-adv-x="479" d="M-231 -419l57 223q20 -6 35.5 -9t37.5 -3q38 0 69.5 44.5t47.5 130.5l223 1115h282l-223 -1115q-41 -206 -145.5 -305t-262.5 -99q-31 0 -60 4.5t-61 13.5zM287 1343l43 217h281l-43 -217h-281z" />
<glyph unicode="&#x459;" horiz-adv-x="1446" d="M-59 0l42 228h22q64 0 118 96.5t94 293.5l92 464h696l-69 -344h135q172 0 264.5 -103.5t60.5 -264.5q-36 -177 -160.5 -273.5t-312.5 -96.5h-416l170 854h-131l-47 -236q-68 -335 -187.5 -476.5t-333.5 -141.5h-37zM834 225h134q56 0 95.5 42t51.5 105q13 64 -8 102 t-82 38h-134z" />
<glyph unicode="&#x45a;" horiz-adv-x="1447" d="M1 0l216 1082h282l-85 -422h225l85 422h283l-69 -344h134q173 0 265 -103.5t60 -264.5q-36 -177 -160 -273.5t-313 -96.5h-416l86 434h-225l-86 -434h-282zM836 225h133q56 0 95.5 42t51.5 105q13 64 -8 102t-82 38h-133z" />
<glyph unicode="&#x45b;" horiz-adv-x="962" d="M-3 0l241 1206h-93l35 175h93l36 179h282l-36 -179h182l-35 -175h-182l-47 -233l5 -3q49 63 110 97.5t127 34.5q128 0 187.5 -116.5t13.5 -351.5l-127 -634h-283l127 636q29 143 11 190.5t-81 47.5q-34 0 -65 -17.5t-58 -49.5l-161 -807h-282z" />
<glyph unicode="&#x45c;" horiz-adv-x="982" d="M22 0l216 1082h282l-82 -409h68l223 409h356l-362 -492l168 -590h-376l-63 402h-68l-80 -402h-282zM501 1216l209 266h295l2 -6l-280 -260h-226z" />
<glyph unicode="&#x45d;" horiz-adv-x="963" d="M1 0l216 1082h283l-112 -562l5 -3l334 565h282l-216 -1082h-282l112 563l-5 3l-334 -566h-283zM360 1482h302l124 -266h-226z" />
<glyph unicode="&#x45e;" d="M-81 -413l76 212q13 -3 21 -4.5t16 -1.5q54 0 92 33.5t61 84.5l38 78l-84 1093h303l-11 -615l6 -2l264 617h301l-595 -1245q-62 -116 -143.5 -195t-217.5 -79q-32 0 -59 6t-68 18zM349 1549l2 5h206q-9 -54 9 -87.5t67 -33.5q45 0 73 34t37 87h206l2 -6 q-17 -134 -111 -212t-235 -78q-136 0 -208.5 81.5t-47.5 209.5z" />
<glyph unicode="&#x45f;" horiz-adv-x="963" d="M1 0l216 1082h282l-171 -855h227l171 855h283l-216 -1082h-257l-71 -358h-282l71 358h-253z" />
<glyph unicode="&#x460;" horiz-adv-x="1615" d="M105 461l199 995h282l-199 -995q-28 -137 -4 -196t91 -59q64 0 115.5 64t77.5 191l199 995h283l-199 -995q-28 -137 -3 -196t93 -59q63 0 114 64t77 191l199 995h281l-199 -995q-49 -247 -186.5 -364.5t-330.5 -117.5q-81 0 -145 37t-101 109q-64 -74 -145.5 -110 t-174.5 -36q-176 0 -273 127.5t-51 354.5z" />
<glyph unicode="&#x461;" horiz-adv-x="1386" d="M84 453l125 629h281l-125 -629q-28 -136 -16 -191t61 -48l5 -1q51 -6 93 54.5t68 185.5l125 629h282l-125 -629q-28 -138 -15.5 -192t68.5 -47l6 -1q44 -6 80.5 53.5t62.5 186.5l125 629h283l-125 -629q-49 -243 -174 -358.5t-301 -115.5q-73 0 -129 32.5t-87 96.5 q-58 -66 -131 -97.5t-155 -31.5q-161 0 -244.5 125t-37.5 349z" />
<glyph unicode="&#x462;" horiz-adv-x="1066" d="M22 0l218 1093h-122l35 175h122l38 188h281l-38 -188h154l-35 -175h-154l-34 -173h169q197 0 303.5 -126.5t66.5 -328.5q-45 -222 -193 -343.5t-361 -121.5h-450zM348 227h169q78 0 142.5 69.5t84.5 170.5q21 105 -13 165.5t-120 60.5h-170z" />
<glyph unicode="&#x463;" horiz-adv-x="961" d="M22 0l216 1081h-113l35 175h113l61 305h282l-61 -305h185l-35 -175h-185l-60 -296h135q173 0 263.5 -110t56.5 -281q-39 -189 -164 -291.5t-313 -102.5h-416zM349 225h134q55 0 95 48t56 121q15 75 -4.5 120t-79.5 45h-135z" />
<glyph unicode="&#x464;" horiz-adv-x="1499" d="M9 0l291 1456h281l-120 -598h127l4 17q57 289 203 446t356 157q213 0 325 -141.5t81 -385.5h-281q24 148 -10.5 223.5t-141.5 75.5q-82 0 -150 -103t-101 -270l-4 -19h328l-46 -228h-327l-9 -45q-37 -179 -2 -278.5t135 -99.5q89 0 144 69.5t92 219.5h273l2 -6 q-60 -251 -188 -380.5t-342 -129.5q-206 0 -326.5 173t-68.5 432l9 45h-127l-126 -630h-281z" />
<glyph unicode="&#x465;" horiz-adv-x="1279" d="M8 0l216 1082h283l-90 -450h63q40 214 167 342t324 128q162 0 246.5 -114.5t54.5 -308.5h-263q14 93 -2.5 144t-71.5 51q-71 0 -112 -66.5t-61 -175.5h231l-35 -175h-224q-19 -122 -1 -186.5t96 -64.5q51 0 84.5 43t46.5 124h255l2 -6q-26 -177 -144 -282.5t-280 -105.5 q-190 0 -280.5 134.5t-60.5 343.5h-70l-91 -457h-283z" />
<glyph unicode="&#x466;" horiz-adv-x="1143" d="M-63 0l699 1456h293l115 -1456h-294l-24 388h-46l-78 -388h-232l78 388h-38l-178 -388h-295zM501 586h213l-24 399l-6 1z" />
<glyph unicode="&#x467;" horiz-adv-x="968" d="M-72 0l533 1082h296l102 -1082h-287l-10 276h-34l-55 -276h-172l55 276h-23l-118 -276h-287zM411 457h145l-7 215v98l-6 1l-40 -99z" />
<glyph unicode="&#x468;" horiz-adv-x="1607" d="M27 0l291 1456h281l-174 -870h238l418 870h293l115 -1456h-294l-24 388h-46l-78 -388h-232l78 388h-38l-178 -388h-295l186 387h-183l-77 -387h-281zM946 586h213l-24 399l-6 1z" />
<glyph unicode="&#x469;" horiz-adv-x="1374" d="M8 0l216 1082h283l-125 -625h178l308 625h296l102 -1082h-287l-10 276h-34l-55 -276h-172l55 276h-23l-118 -276h-287l136 277h-125l-55 -277h-283zM818 457h145l-7 215v98l-6 1l-40 -99z" />
<glyph unicode="&#x46a;" horiz-adv-x="1494" d="M6 0l68 341q50 253 179 353t354 103l-174 659h1075l-440 -661q187 -12 274 -122t43 -332l-68 -341h-282l68 341q27 135 -4.5 180.5t-125.5 45.5h-44l-113 -567h-281l113 567h-72q-86 0 -141 -51t-79 -175l-68 -341h-282zM789 1225l67 -324l6 -1l197 325h-270z" />
<glyph unicode="&#x46b;" horiz-adv-x="1249" d="M2 0l37 187q43 213 141.5 309t261.5 112l-128 474h897l-320 -478q137 -24 198 -126t24 -291l-37 -187h-282l37 187q24 121 8 163t-71 36l-6 -1l-77 -385h-282l79 397h-1q-58 0 -97.5 -47.5t-62.5 -162.5l-37 -187h-282zM647 898l34 -210l5 -1l118 211h-157z" />
<glyph unicode="&#x46c;" horiz-adv-x="1991" d="M35 0l291 1456h281l-132 -657h628l-174 657h1075l-440 -661q187 -12 274 -122t43 -332l-68 -341h-282l68 341q27 135 -4.5 180.5t-125.5 45.5h-44l-113 -567h-281l113 567h-72q-86 0 -141 -51t-79 -175l-68 -341h-282l68 341q13 68 32.5 124.5t45.5 103.5h-219l-113 -569 h-281zM1285 1225l67 -324l6 -1l197 325h-270z" />
<glyph unicode="&#x46d;" horiz-adv-x="1730" d="M26 0l216 1082h283l-94 -469h491l-127 469h897l-320 -478q137 -24 198 -126t24 -291l-37 -187h-282l37 187q24 121 8 163t-71 36l-6 -1l-77 -385h-282l79 397h-1q-58 0 -97.5 -47.5t-62.5 -162.5l-37 -187h-282l37 187q13 66 31.5 120.5t43.5 98.5h-205l-81 -406h-283z M1128 898l34 -210l5 -1l118 211h-157z" />
<glyph unicode="&#x46e;" horiz-adv-x="874" d="M-113 -75q31 152 124.5 221.5t238.5 69.5h53q63 0 114 52t67 134q24 118 -13 171.5t-131 53.5h-118l32 157l16 79h126q66 0 112 51.5t63 135.5q17 86 -11.5 128.5t-105.5 42.5h-193l47 235h193q203 0 299 -94t59 -284q-27 -129 -92.5 -212t-164.5 -124 q100 -45 144.5 -131t20.5 -205q-44 -215 -172.5 -320t-321.5 -105h-44q-36 0 -61 -26.5t-33 -70.5q-13 -62 11 -95.5t66 -59.5l-111 -172q-139 33 -190 128t-24 240zM346 1898l3 15h253l56 -127l105 127h254l-3 -17l-291 -253h-189z" />
<glyph unicode="&#x46f;" horiz-adv-x="871" d="M-82 -75q28 135 111.5 197t212.5 62h49q64 0 113.5 36.5t61.5 94.5q14 71 -20 104t-112 33h-135l17 84l18 89h144q50 0 85 37t48 99q12 58 -16 87.5t-97 29.5h-201l40 204h201q196 0 292.5 -73t67.5 -221q-20 -93 -70 -155t-127 -95q83 -35 121 -94.5t22 -139.5 q-33 -162 -149 -242.5t-295 -80.5h-40q-45 0 -74 -26t-37 -71q-13 -62 6 -95.5t54 -59.5l-106 -156q-107 39 -157.5 132.5t-27.5 219.5zM282 1512l3 15h253l56 -127l105 127h254l-3 -17l-291 -253h-189z" />
<glyph unicode="&#x470;" horiz-adv-x="1239" d="M144 949l101 507h282l-101 -507q-33 -162 -10 -248t96 -101l6 1l171 855h281l-171 -851l6 -2q72 16 127 104.5t86 241.5l101 507h283l-101 -507q-56 -276 -199.5 -424t-352.5 -172l-70 -353h-281l70 352q-191 25 -283.5 182.5t-40.5 414.5z" />
<glyph unicode="&#x471;" horiz-adv-x="1291" d="M86 588l98 494h283l-99 -496q-32 -157 -7 -240t93 -104h6l167 839h282l-167 -830l5 -3q90 32 152.5 125.5t89.5 224.5q21 116 24 235.5t-6 248.5h255q29 -97 33.5 -218t-23.5 -266q-52 -257 -191.5 -416.5t-390.5 -193.5l-92 -461h-282l93 466q-195 38 -285.5 186.5 t-37.5 408.5z" />
<glyph unicode="&#x472;" horiz-adv-x="1170" d="M101 523l81 408q54 272 211 409t382 137q206 0 317.5 -148t61.5 -398l-81 -408q-55 -273 -212.5 -408.5t-383.5 -135.5q-207 0 -317 146t-59 398zM380 523q-34 -168 2 -242t140 -74q94 0 166 80.5t104 235.5l24 122h-412zM439 820h412l23 113q32 167 -4.5 241t-139.5 74 q-96 0 -167 -80.5t-101 -234.5z" />
<glyph unicode="&#x473;" horiz-adv-x="958" d="M64 473l21 134q36 226 166.5 360.5t332.5 134.5q191 0 283.5 -140t58.5 -355l-21 -134q-37 -228 -168 -361t-331 -133q-193 0 -285.5 138.5t-56.5 355.5zM340 449q-17 -118 4.5 -180.5t97.5 -62.5q69 0 112 65.5t64 177.5h-278zM368 625h279q17 118 -4 183.5t-95 65.5 q-72 0 -116.5 -68.5t-63.5 -180.5z" />
<glyph unicode="&#x474;" horiz-adv-x="1101" d="M224 1456h297l13 -1080l-1 -49l6 -1l19 47l297 758q79 173 169.5 258.5t214.5 85.5l35 -1l-50 -236h-26q-30 0 -58 -33t-44 -91l-478 -1114h-292z" />
<glyph unicode="&#x475;" horiz-adv-x="878" d="M149 1082h295l-34 -674l-3 -50l6 -1l18 51l120 359q74 166 164 250.5t207 84.5q23 0 43.5 -4.5t35.5 -13.5l-65 -223q-1 1 -14.5 3t-21.5 2q-29 0 -58 -31.5t-43 -81.5l-320 -753h-276z" />
<glyph unicode="&#x476;" horiz-adv-x="1101" d="M224 1456h297l13 -1080l-1 -49l6 -1l19 47l297 758q79 173 169.5 258.5t214.5 85.5l35 -1l-50 -236h-26q-30 0 -58 -33t-44 -91l-478 -1114h-292zM320 1854h267l136 -266h-226zM660 1854h264l102 -266h-224z" />
<glyph unicode="&#x477;" horiz-adv-x="878" d="M149 1082h295l-34 -674l-3 -50l6 -1l18 51l120 359q74 166 164 250.5t207 84.5q23 0 43.5 -4.5t35.5 -13.5l-65 -223q-1 1 -14.5 3t-21.5 2q-29 0 -58 -31.5t-43 -81.5l-320 -753h-276zM191 1524h267l136 -266h-226zM531 1524h264l102 -266h-224z" />
<glyph unicode="&#x478;" horiz-adv-x="2001" d="M114 600l52 259q58 290 212.5 454t376.5 164q211 0 337 -181t74 -441l-52 -259q-58 -289 -218 -453t-384 -164q-209 0 -330 179.5t-68 441.5zM394 600q-36 -180 9 -286.5t154 -106.5q95 0 168 107.5t108 281.5l52 261q36 177 -14.5 284t-160.5 107q-94 0 -161.5 -106 t-102.5 -281zM1040 -413l76 212q13 -3 21 -4.5t16 -1.5q54 0 92 33.5t61 84.5l38 78l-84 1093h303l-11 -615l6 -2l264 617h301l-595 -1245q-62 -116 -143.5 -195t-217.5 -79q-32 0 -59 6t-68 18z" />
<glyph unicode="&#x479;" horiz-adv-x="1840" d="M66 473l21 134q36 226 166.5 360.5t332.5 134.5q191 0 283.5 -140t58.5 -355l-21 -134q-37 -228 -168 -361t-331 -133q-193 0 -285.5 138.5t-56.5 355.5zM344.5 274.5q19.5 -68.5 99.5 -68.5q73 0 117 72t64 195l21 134q20 127 0.5 197t-96.5 70q-74 0 -119.5 -73.5 t-63.5 -193.5l-21 -134q-21 -130 -1.5 -198.5zM879 -413l76 212q13 -3 21 -4.5t16 -1.5q54 0 92 33.5t61 84.5l38 78l-84 1093h303l-11 -615l6 -2l264 617h301l-595 -1245q-62 -116 -143.5 -195t-217.5 -79q-32 0 -59 6t-68 18z" />
<glyph unicode="&#x47a;" horiz-adv-x="1170" d="M120 600l52 259q58 290 212 454q135 143 322 161l21 102h177l-23 -116q129 -38 217 -164q126 -181 74 -441l-52 -259q-58 -289 -218 -453q-135 -138 -315 -160l-23 -118h-177l25 127q-136 35 -224 166q-121 180 -68 442zM400 600q-36 -180 9 -287q20 -47 53 -74l18 92 h177l-22 -107q52 26 96 90q73 108 108 282l52 261q36 177 -15 284q-19 39 -46 64l-17 -86h-177l23 119q-58 -23 -105 -96q-67 -106 -102 -281z" />
<glyph unicode="&#x47b;" horiz-adv-x="962" d="M66 473l21 134q36 226 166 360q113 116 278 132l21 105h176l-24 -118q104 -32 165 -124q93 -140 59 -355l-21 -134q-37 -228 -168 -361q-108 -109 -261 -129l-22 -109h-175l23 117q-116 28 -182 126q-92 139 -56 356zM344 274q4 -14 11 -26l18 87h175l-19 -97 q17 16 32 40q44 72 64 195l21 134q19 124 1 193l-8 -42h-176l19 97q-29 -18 -52 -55q-45 -73 -63 -193l-21 -134q-21 -130 -2 -199z" />
<glyph unicode="&#x47c;" horiz-adv-x="1615" d="M107 468l99 498q50 248 187 367.5t324 114.5l5 -3l-43 -217q-62 0 -114 -66.5t-77 -195.5l-99 -498q-29 -141 -5.5 -201.5t90.5 -60.5q64 0 115.5 64t77.5 191l73 364h266l-73 -364q-28 -138 -4.5 -196.5t94.5 -58.5q62 0 114 66t79 196l99 498q27 140 3.5 201t-90.5 61 l43 219l6 1q173 5 268.5 -124t50.5 -358l-99 -498q-51 -249 -189 -369t-330 -120q-78 0 -140.5 34t-99.5 100q-63 -68 -141.5 -101t-167.5 -33q-176 0 -272 129.5t-50 359.5zM783 1575l7 36q23 114 81 166t149 52q48 0 167.5 -63t209.5 -63h16l-26 -127h-17 q-93 0 -217.5 62.5t-155.5 62.5q-30 0 -56.5 -28.5t-35.5 -79.5l-4 -18h-118zM867 1340l68 108l28 148h158l-26 -131l-165 -175z" />
<glyph unicode="&#x47d;" horiz-adv-x="1371" d="M95 445l38 188q47 237 177.5 350.5t309.5 108.5l5 -3l-44 -217q-54 0 -98 -60t-67 -179l-38 -188q-27 -130 -16.5 -184t52.5 -46l6 -1q36 -7 72.5 54t62.5 185l32 160h267l-32 -160q-28 -135 -17 -190.5t56 -47.5l5 -1q35 -7 71 52.5t60 178.5l38 188q25 128 5 183.5 t-78 55.5l44 219l6 1q164 5 256 -118t49 -341l-38 -188q-48 -238 -171 -352t-291 -114q-64 0 -114 33t-78 97q-53 -66 -118 -98t-137 -32q-155 0 -237 123.5t-38 342.5zM612 1235l7 36q23 116 80.5 167t149.5 51q48 0 167 -62.5t209 -62.5h16l-26 -128h-16q-94 0 -218 62.5 t-155 62.5t-57 -28t-35 -80l-4 -18h-118zM680 1035l89 99l21 112l178 -10l-25 -107l-198 -152z" />
<glyph unicode="&#x47e;" horiz-adv-x="1616" d="M105 461l199 995h282l-199 -995q-28 -137 -4 -196t91 -59q64 0 115.5 64t77.5 191l199 995h283l-199 -995q-28 -137 -3 -196t93 -59q63 0 114 64t77 191l199 995h281l-199 -995q-49 -247 -186.5 -364.5t-330.5 -117.5q-81 0 -145 37t-101 109q-64 -74 -145.5 -110 t-174.5 -36q-176 0 -273 127.5t-51 354.5zM685 1688l21 108h749l-20 -108h-299l-25 -125h-165l25 125h-286z" />
<glyph unicode="&#x47f;" horiz-adv-x="1387" d="M84 453l125 629h281l-125 -629q-28 -136 -16 -191t61 -48l5 -1q51 -6 93 54.5t68 185.5l125 629h282l-125 -629q-28 -138 -15.5 -192t68.5 -47l6 -1q44 -6 80.5 53.5t62.5 186.5l125 629h283l-125 -629q-49 -243 -174 -358.5t-301 -115.5q-73 0 -129 32.5t-87 96.5 q-58 -66 -131 -97.5t-155 -31.5q-161 0 -244.5 125t-37.5 349zM553 1349l21 108h682l-16 -108h-272l-26 -127h-164l26 127h-251z" />
<glyph unicode="&#x480;" horiz-adv-x="1049" d="M107 582l59 291q57 285 211.5 444.5t366.5 159.5q201 0 296 -131t47 -372h-282q30 155 7.5 215t-113.5 60q-83 0 -151 -103.5t-101 -270.5l-59 -293q-37 -183 -13 -279.5t115 -96.5h182l-113 -566h-281l70 353q-150 42 -218.5 202t-22.5 387z" />
<glyph unicode="&#x481;" horiz-adv-x="914" d="M95 526l6 28q51 256 185 402t337 146q157 0 239 -115.5t44 -307.5h-263q18 94 4 143.5t-67 44.5l-6 1q-67 4 -115 -84t-76 -230l-6 -28q-31 -156 -21.5 -236t81.5 -84h192l-113 -568h-282l70 354q-138 39 -194 185t-15 349z" />
<glyph unicode="&#x482;" horiz-adv-x="1059" d="M58 0l261 398l-198 171l85 123l203 -171l231 365l-200 171l88 125l200 -171l212 331h148l-260 -408l201 -171l-90 -122l-199 170l-232 -365l198 -172l-87 -123l-201 170l-209 -321h-151z" />
<glyph unicode="&#x483;" horiz-adv-x="26" d="M-577 1191l48 233h451l20 108l159 -1l-43 -216h-449l-25 -125z" />
<glyph unicode="&#x484;" horiz-adv-x="26" d="M-540 1304l25 127h16q93 0 242.5 63t198.5 63q93 0 132.5 -52t16.5 -166l-7 -36h-121l3 18q11 51 -5 79.5t-47 28.5q-32 0 -186 -62.5t-250 -62.5h-18z" />
<glyph unicode="&#x485;" horiz-adv-x="26" d="M-257 1500l29 146h165l-33 -163l24 -108l-84 -65z" />
<glyph unicode="&#x486;" horiz-adv-x="26" d="M-280 1375l68 108l31 163h165l-29 -146l-176 -190z" />
<glyph unicode="&#x488;" horiz-adv-x="0" d="M-1252 493q14 84 69 133t132 49q74 0 111.5 -53t20.5 -135h-89q10 46 -3.5 73.5t-56.5 27.5q-36 0 -62.5 -29.5t-35.5 -71.5h-84zM-1221 -26q13 84 67.5 133t132.5 49q74 0 112.5 -53.5t21.5 -134.5h-91q9 46 -4.5 73.5t-55.5 27.5q-36 0 -62.5 -29.5t-34.5 -71.5h-84z M-1009 996q14 84 68.5 133t133.5 49q73 0 111 -53.5t21 -134.5h-90q10 46 -3.5 73.5t-56.5 27.5q-37 0 -63 -29.5t-35 -71.5h-84zM-804 -310q14 85 68 133.5t132 48.5q74 0 112 -53t21 -135h-90q9 47 -4.5 74t-55.5 27q-36 0 -62.5 -29t-34.5 -72h-84zM-492 1273 q14 84 68.5 133t133.5 49q72 0 110 -53.5t21 -134.5h-90q10 46 -3.5 73.5t-54.5 27.5q-37 0 -64 -29.5t-36 -71.5h-83zM-283 -26q13 84 68 133t133 49q72 0 109.5 -53.5t20.5 -134.5h-88q9 46 -4 73.5t-55 27.5q-37 0 -63 -29.5t-35 -71.5h-84zM-70 996q14 84 68 133t133 49 q71 0 109 -53.5t22 -134.5h-91q9 46 -4.5 73.5t-53.5 27.5q-38 0 -63.5 -29.5t-34.5 -71.5h-83zM-21 493q14 84 67.5 133t131.5 49q73 0 110.5 -53t21.5 -135h-90q9 46 -4.5 73.5t-54.5 27.5q-36 0 -62.5 -29.5t-34.5 -71.5h-83z" />
<glyph unicode="&#x489;" horiz-adv-x="0" d="M-1236 545l20 98l263 -71l-27 -139l-12 -12zM-1204 -80l277 200l58 -99l-4 -17l-290 -153zM-880 1188l64 69l101 -299l-99 -98l-13 2zM-767 -413l127 353h111l5 -14l-166 -339h-77zM-456 1140l166 338h77l-127 -352h-109zM-277 62l99 99l13 -2l54 -325l-65 -71z M-122 1002l6 16l287 153l41 -68q-34 -23 -275 -200zM-30 492l28 139l13 12l242 -124l-20 -98z" />
<glyph unicode="&#x48a;" horiz-adv-x="1178" d="M11 0l291 1456h282l-176 -880l6 -2l583 882h282l-291 -1456h-282l175 878l-6 2l-582 -880h-282zM566 1892l2 5h206q-9 -54 9 -87.5t67 -33.5q45 0 73 34t37 87h206l2 -6q-17 -134 -111 -212t-235 -78q-136 0 -208.5 81.5t-47.5 209.5zM848 -346l121 319l46 231h250 l-48 -239l-205 -311h-164z" />
<glyph unicode="&#x48b;" horiz-adv-x="963" d="M1 0l216 1082h283l-112 -562l5 -3l334 565h282l-216 -1082h-282l112 563l-5 3l-334 -566h-283zM396 1549l2 5h206q-9 -54 9 -87.5t67 -33.5q45 0 73 34t37 87h206l2 -6q-17 -134 -111 -212t-235 -78q-136 0 -208.5 81.5t-47.5 209.5zM653 -346l121 319l46 231h250 l-48 -239l-205 -311h-164z" />
<glyph unicode="&#x48c;" horiz-adv-x="1066" d="M22 0l218 1093h-122l35 175h122l38 188h281l-38 -188h154l-35 -175h-154l-34 -173h169q197 0 303.5 -126.5t66.5 -328.5q-45 -222 -193 -343.5t-361 -121.5h-450zM348 227h169q78 0 142.5 69.5t84.5 170.5q21 105 -13 165.5t-120 60.5h-170z" />
<glyph unicode="&#x48d;" horiz-adv-x="961" d="M22 0l255 1280h-112l35 176h113l31 156h282l-31 -156h185l-35 -176h-186l-99 -495h135q173 0 263.5 -110t56.5 -281q-39 -189 -164 -291.5t-313 -102.5h-416zM349 225h134q55 0 95 48t56 121q15 75 -4.5 120t-79.5 45h-135z" />
<glyph unicode="&#x48e;" horiz-adv-x="1063" d="M23 0l291 1456h488q194 0 296 -131.5t62 -335.5q-45 -223 -190 -345q-5 -5 -11 -10l74 -126l-106 -85l-84 143q-102 -44 -228 -44h-205l-104 -522h-283zM456 750h205q35 0 67 14l-85 146l106 86l79 -137q35 56 50 128q22 111 -7.5 176t-113.5 65h-205z" />
<glyph unicode="&#x48f;" horiz-adv-x="956" d="M-78 -416l299 1498h262l-9 -82q46 49 98 75.5t109 26.5q153 0 222 -169t20 -418l-4 -21q-52 -258 -158 -387l-11 -13l52 -97l-107 -83l-52 98q-68 -33 -152 -33q-59 0 -108 23.5t-82 69.5l-97 -488h-282zM337 250q13 -24 39 -34t69 -10q44 0 79 31l-73 139l106 83l46 -88 q19 53 34 123l4 21q33 166 21 262.5t-83 96.5q-38 0 -73 -28t-65 -77z" />
<glyph unicode="&#x490;" horiz-adv-x="948" d="M21 0l291 1456h519l76 377h281l-121 -604h-14v-1h-503l-246 -1228h-283z" />
<glyph unicode="&#x491;" horiz-adv-x="803" d="M0 0l216 1082h378l64 320h282l-109 -547h-45v-1h-333l-171 -854h-282z" />
<glyph unicode="&#x492;" horiz-adv-x="948" d="M23 0l133 666h-120l35 175h120l123 615h786l-45 -228h-503l-78 -387h154l-35 -175h-154l-133 -666h-283z" />
<glyph unicode="&#x493;" horiz-adv-x="716" d="M-30 457l35 175h122l90 450h615l-45 -228h-333l-45 -222h153l-35 -175h-153l-91 -457h-282l91 457h-122z" />
<glyph unicode="&#x494;" horiz-adv-x="940" d="M23 0l291 1456h786l-45 -228h-503l-79 -392h130q214 0 323.5 -150.5t52.5 -436.5q-52 -253 -193.5 -419.5t-381.5 -162.5l-5 3l40 204q108 0 166.5 107t88.5 253q38 189 3.5 281t-140.5 92h-130l-121 -607h-283z" />
<glyph unicode="&#x495;" horiz-adv-x="920" d="M0 0l216 1082h615l-45 -228h-333l-38 -191h15q202 0 311 -125t62 -360q-23 -130 -129 -264t-261 -198l-88 186q74 49 125.5 116t70.5 160q26 137 -8.5 196.5t-128.5 59.5h-15l-87 -434h-282z" />
<glyph unicode="&#x496;" horiz-adv-x="1728" d="M-60 0l516 804l-209 652h350l110 -594h115l119 594h282l-119 -594h112l340 594h349l-462 -650l186 -806h-350l-95 604h-132l-120 -604h-282l120 604h-135l-344 -604h-351zM1390 -356l111 558h282l-111 -558h-282z" />
<glyph unicode="&#x497;" horiz-adv-x="1491" d="M-51 0l369 590l-149 492h358l59 -407h72l82 407h282l-82 -407h77l220 407h358l-345 -492l133 -590h-361l-46 404h-90l-80 -404h-282l80 404h-87l-207 -404h-361zM1102 -356l111 558h282l-111 -558h-282z" />
<glyph unicode="&#x498;" horiz-adv-x="1053" d="M64 399l2 5h275q-19 -91 15 -144.5t108 -53.5q76 0 137.5 58t79.5 146q25 124 -4.5 173t-111.5 49h-145l31 152l14 69h145q68 0 116 54.5t68 150.5q17 88 -12.5 139.5t-108.5 51.5q-61 0 -114.5 -51.5t-69.5 -134.5h-273l-2 6q34 195 176.5 301.5t327.5 106.5 q191 0 294 -110t64 -305q-22 -108 -87 -191t-160 -128q85 -45 121.5 -131t12.5 -206q-43 -214 -189 -320.5t-355 -106.5q-171 0 -285.5 108.5t-69.5 311.5zM198 -480l111 558h282l-111 -558h-282z" />
<glyph unicode="&#x499;" horiz-adv-x="879" d="M44 313l2 5h274q-12 -60 6.5 -93.5t75.5 -33.5q47 0 79 39t44 97q15 75 -3 105.5t-68 30.5h-123l10 54l10 48l4 21l12 57h123q40 0 67.5 32.5t39.5 88.5q11 58 0.5 91.5t-56.5 33.5q-42 0 -74.5 -31.5t-42.5 -85.5h-273l-2 6q27 156 143.5 239t274.5 83q164 0 254 -83 t61 -230q-16 -79 -64 -140t-120 -94q66 -34 93.5 -97.5t10.5 -151.5q-32 -161 -155.5 -242t-303.5 -81q-144 0 -240 86.5t-59 245.5zM126 -479l111 558h282l-111 -558h-282z" />
<glyph unicode="&#x49a;" horiz-adv-x="1095" d="M22 0l291 1456h282l-119 -594h87l325 594h370l-496 -722l217 -734h-324l-148 602h-83l-120 -602h-282zM708 -356l111 558h282l-111 -558h-282z" />
<glyph unicode="&#x49b;" horiz-adv-x="982" d="M22 0l216 1082h282l-82 -409h68l223 409h356l-362 -492l168 -590h-376l-63 402h-68l-80 -402h-282zM617 -356l111 558h282l-111 -558h-282z" />
<glyph unicode="&#x49c;" horiz-adv-x="1140" d="M21 0l291 1456h282l-119 -596h50l53 261h150l-53 -261h19l295 596h350l-430 -643l166 -813h-361l-61 602h-29l-47 -235h-150l47 235h-51l-120 -602h-282z" />
<glyph unicode="&#x49d;" horiz-adv-x="1057" d="M22 0l216 1082h282l-82 -409h48l39 194h135l-39 -194h30l168 409h356l-324 -492l112 -590h-360l-13 402h-23l-35 -175h-135l35 175h-48l-80 -402h-282z" />
<glyph unicode="&#x49e;" horiz-adv-x="1115" d="M42 0l228 1143h-177l35 175h177l28 138h282l-28 -138h98l-35 -175h-98l-56 -281h87l325 594h370l-496 -722l217 -734h-324l-148 602h-83l-120 -602h-282z" />
<glyph unicode="&#x49f;" horiz-adv-x="954" d="M25 0l242 1212h-151l35 175h151l35 173h282l-35 -173h124l-35 -175h-124l-107 -538h42l244 408h324l-360 -484l190 -598h-322l-119 450h-44l-90 -450h-282z" />
<glyph unicode="&#x4a0;" horiz-adv-x="1400" d="M191 1228l45 228h666l-119 -594h87l325 594h370l-496 -722l217 -734h-324l-148 602h-83l-120 -602h-282l245 1228h-383z" />
<glyph unicode="&#x4a1;" horiz-adv-x="1238" d="M147 854l45 228h598l-82 -409h68l223 409h356l-362 -492l168 -590h-376l-63 402h-68l-80 -402h-282l170 854h-315z" />
<glyph unicode="&#x4a2;" horiz-adv-x="1193" d="M22 0l291 1456h283l-125 -626h415l125 626h281l-291 -1456h-281l120 603h-415l-120 -603h-283zM819 -356l111 558h282l-111 -558h-282z" />
<glyph unicode="&#x4a3;" horiz-adv-x="963" d="M1 0l216 1082h282l-87 -436h225l87 436h283l-216 -1082h-283l84 420h-225l-84 -420h-282zM609 -356l111 558h282l-111 -558h-282z" />
<glyph unicode="&#x4a4;" horiz-adv-x="1643" d="M22 0l291 1456h283l-125 -626h415l125 626h761l-45 -227h-478l-2 2l-246 -1231h-281l120 603h-415l-120 -603h-283z" />
<glyph unicode="&#x4a5;" horiz-adv-x="1182" d="M-1 0l216 1082h282l-87 -436h225l87 436h534l-45 -227h-252l-170 -855h-283l84 420h-225l-84 -420h-282z" />
<glyph unicode="&#x4a6;" horiz-adv-x="1767" d="M25 0l291 1456h980l-125 -622h121q214 0 323.5 -150.5t52.5 -436.5q-52 -253 -193.5 -419.5t-381.5 -162.5l-5 3l40 204q108 0 166.5 107t88.5 253q38 189 3.5 281t-140.5 92h-120l-121 -605h-281l246 1228h-416l-246 -1228h-283z" />
<glyph unicode="&#x4a7;" horiz-adv-x="1463" d="M-1 0l216 1082h792l-82 -411h51q211 0 325.5 -125t67.5 -361q-23 -131 -128.5 -264.5t-261.5 -196.5l-87 185q74 50 125.5 116.5t70.5 159.5q24 128 -16.5 192.5t-141.5 64.5h-51l-88 -442h-283l170 854h-227l-170 -854h-282z" />
<glyph unicode="&#x4a8;" horiz-adv-x="1378" d="M131 662l43 213q55 275 205 437.5t341 156.5l6 -3l-47 -226q-59 0 -118 -104.5t-89 -258.5l-43 -215q-43 -211 8 -329t184 -118q17 0 33.5 2t34.5 7q-71 99 -95 227t6 276l41 202q49 249 175.5 397.5t286.5 148.5q161 0 239.5 -168.5t27.5 -424.5l-35 -176 q-30 -148 -89.5 -271t-143.5 -216q31 -9 65.5 -12.5t74.5 -3.5l-44 -218q-86 0 -164 17.5t-145 51.5q-73 -37 -152.5 -56t-162.5 -19q-238 0 -369.5 198t-73.5 485zM852 527q8 -88 45 -145l6 -1q50 58 89.5 143t59.5 182l42 209q37 185 26 253.5t-63 60.5l-6 1 q-36 7 -75 -69t-69 -231l-41 -205q-22 -110 -14 -198z" />
<glyph unicode="&#x4a9;" horiz-adv-x="1124" d="M91 525l20 102q40 201 175.5 337t284.5 131l5 -3l-45 -225q-39 -8 -68.5 -67t-51.5 -171l-21 -104q-26 -125 3.5 -209.5t95.5 -80.5l5 1q-23 48 -25 123.5t17 167.5l32 157q35 175 143 296t228 121q137 0 194 -125.5t16 -337.5l-30 -149q-20 -98 -70.5 -185t-122.5 -155 q30 -10 63 -14.5t69 -4.5l-31 -157q-90 0 -163.5 13t-130.5 38q-53 -23 -107.5 -34t-108.5 -11q-220 0 -323 147.5t-53 398.5zM675 402.5q4 -51.5 24 -86.5l6 -1q28 28 50.5 77.5t35.5 112.5l30 151q17 88 13.5 148t-25.5 51l-6 1q-21 8 -46 -44t-42 -138l-32 -161 q-12 -59 -8 -110.5z" />
<glyph unicode="&#x4aa;" horiz-adv-x="1045" d="M109 584l58 290q57 289 203 446t356 157q213 0 325 -141.5t81 -385.5h-281q24 148 -10.5 223.5t-141.5 75.5q-82 0 -150 -103t-101 -270l-58 -292q-37 -179 -2 -278.5t135 -99.5q89 0 144 69.5t92 219.5h273l2 -6q-60 -251 -188 -380.5t-342 -129.5q-206 0 -326.5 173 t-68.5 432zM202 -472l111 558h282l-111 -558h-282z" />
<glyph unicode="&#x4ab;" horiz-adv-x="878" d="M58 470l22 139q36 224 164.5 358.5t330.5 134.5q162 0 246.5 -114.5t54.5 -308.5h-263q14 93 -2.5 144t-71.5 51q-74 0 -116 -73t-61 -192l-22 -139q-21 -129 -4 -196.5t97 -67.5q51 0 84.5 43t46.5 124h255l2 -6q-26 -177 -144 -282.5t-280 -105.5q-193 0 -283.5 138.5 t-55.5 352.5zM154 -472l111 558h282l-111 -558h-282z" />
<glyph unicode="&#x4ac;" horiz-adv-x="955" d="M193 1228l45 228h893l-45 -228h-308l-245 -1228h-281l245 1228h-304zM351 -356l111 558h282l-111 -558h-282z" />
<glyph unicode="&#x4ad;" horiz-adv-x="884" d="M120 856l45 226h814l-45 -226h-266l-171 -856h-284l171 856h-264zM313 -356l111 558h282l-111 -558h-282z" />
<glyph unicode="&#x4ae;" horiz-adv-x="1085" d="M217 1456h308l99 -607l5 -1l344 608h307l-583 -939l-103 -517h-281l108 539z" />
<glyph unicode="&#x4af;" d="M130 -416l86 430l-67 1068h295l-20 -674l-3 -70l6 -1l25 71l246 674h295l-498 -1078l-84 -420h-281z" />
<glyph unicode="&#x4b0;" horiz-adv-x="1085" d="M217 1456h308l99 -607l5 -1l344 608h307l-473 -762h79l-35 -175h-153l-1 -2l-103 -517h-281l104 519h-123l35 175h57z" />
<glyph unicode="&#x4b1;" d="M85 13l35 175h85l-56 894h295l-20 -674l-4 -70l6 -1l26 71l246 674h295l-413 -894h97l-35 -175h-143l-4 -8l-84 -421h-281l86 429h-131z" />
<glyph unicode="&#x4b2;" horiz-adv-x="1088" d="M-40 0l458 734l-217 722h324l95 -508l6 -1l261 509h326l-449 -722l239 -734h-340l-101 519l-6 1l-268 -520h-328zM676 -356l111 558h282l-111 -558h-282z" />
<glyph unicode="&#x4b3;" d="M-51 0l347 547l-168 535h316l41 -339l6 -1l155 340h317l-338 -535l172 -547h-316l-49 349l-5 1l-161 -350h-317zM460 -356l111 558h282l-111 -558h-282z" />
<glyph unicode="&#x4b4;" horiz-adv-x="1517" d="M201 1228l45 228h778l-45 -228h-242l-200 -1001h415l246 1229h283l-246 -1230h172l-134 -577h-262l70 351h-870l245 1228h-255z" />
<glyph unicode="&#x4b5;" horiz-adv-x="1179" d="M123 0l170 854h-152l45 228h570l-45 -228h-136l-125 -627h227l171 855h283l-171 -857h146l-128 -546h-262l64 321h-657z" />
<glyph unicode="&#x4b6;" horiz-adv-x="1189" d="M234 1014l88 442h281l-88 -442q-31 -152 3 -202.5t139 -50.5q36 0 99 7.5t114 19.5l134 668h283l-291 -1456h-283l112 562q-52 -13 -113.5 -20.5t-99.5 -7.5q-211 0 -318.5 120t-59.5 360zM814 -356l111 558h282l-111 -558h-282z" />
<glyph unicode="&#x4b7;" horiz-adv-x="952" d="M141 746l67 336h281l-67 -336q-23 -117 1 -152.5t106 -35.5q19 0 39 2.5t43 8.5l103 513h283l-216 -1082h-283l68 340q-23 -5 -44 -7t-39 -2q-192 0 -288.5 102t-53.5 313zM599 -356l111 558h282l-111 -558h-282z" />
<glyph unicode="&#x4b8;" horiz-adv-x="1159" d="M203 1014l88 442h281l-88 -442q-31 -152 3 -203q33 -49 134 -50l59 296h151l-56 -282q34 6 64 13l134 668h283l-291 -1456h-283l112 562q-31 -8 -65 -14l-50 -253h-151l47 239q-207 1 -313 120q-107 120 -59 360z" />
<glyph unicode="&#x4b9;" horiz-adv-x="958" d="M147 746l67 336h281l-67 -336q-23 -117 1 -153q1 -1 2 -3l48 240h150l-54 -270q20 3 42 9l103 513h283l-216 -1082h-283l68 340q-22 -5 -42 -7l-31 -155h-150l32 162q-113 22 -181 93q-96 102 -53 313z" />
<glyph unicode="&#x4ba;" horiz-adv-x="1201" d="M179 0l291 1456h283l-112 -562q51 12 112.5 20t100.5 8q210 0 317.5 -120.5t60.5 -359.5l-88 -442h-281l88 442q30 151 -4 202t-138 51q-37 0 -100.5 -8t-113.5 -20l-133 -667h-283z" />
<glyph unicode="&#x4bb;" horiz-adv-x="960" d="M-3 0l312 1560h282l-118 -587l5 -3q49 63 110 97.5t127 34.5q128 0 187.5 -116.5t13.5 -351.5l-127 -634h-283l127 636q29 143 11 190.5t-81 47.5q-33 0 -64.5 -17.5t-58.5 -48.5l-161 -808h-282z" />
<glyph unicode="&#x4bc;" horiz-adv-x="1279" d="M112 1081h182q-17 -83 -7.5 -135t44.5 -75q58 280 229 442t384 162q211 0 300.5 -185t27.5 -495l-31 -156h-675l-7 -36q-38 -184 4.5 -282.5t189.5 -98.5q84 0 164.5 21t135.5 49l-3 -230q-32 -28 -129 -56.5t-217 -28.5q-251 0 -367 174t-59 452l12 61q-114 28 -163 138 t-15 279zM611 866h392l7 32q32 162 8 246.5t-123 84.5q-95 0 -174.5 -105t-109.5 -258z" />
<glyph unicode="&#x4bd;" horiz-adv-x="1018" d="M30 864h168q-15 -72 -6 -120.5t41 -72.5q47 199 169 315t299 116q176 0 258.5 -128.5t48.5 -344.5l-28 -174h-504v-4q-18 -111 15 -178t125 -67q72 0 124.5 18.5t123.5 59.5l42 -181q-62 -54 -157 -89t-203 -35q-189 0 -286 135t-64 337l4 24q-108 31 -154 133.5 t-16 255.5zM507 645h226l7 40q15 94 -1.5 141.5t-73.5 47.5q-58 0 -97 -62.5t-61 -166.5z" />
<glyph unicode="&#x4be;" horiz-adv-x="1279" d="M112 1081h182q-17 -83 -7.5 -135t44.5 -75q58 280 229 442t384 162q211 0 300.5 -185t27.5 -495l-31 -156h-675l-7 -36q-38 -184 4.5 -282.5t189.5 -98.5q84 0 164.5 21t135.5 49l-3 -230q-32 -28 -129 -56.5t-217 -28.5q-251 0 -367 174t-59 452l12 61q-114 28 -163 138 t-15 279zM453 -473l111 558h282l-111 -558h-282zM611 866h392l7 32q32 162 8 246.5t-123 84.5q-95 0 -174.5 -105t-109.5 -258z" />
<glyph unicode="&#x4bf;" horiz-adv-x="1018" d="M30 864h168q-15 -72 -6 -120.5t41 -72.5q47 199 169 315t299 116q176 0 258.5 -128.5t48.5 -344.5l-28 -174h-504v-4q-18 -111 15 -178t125 -67q72 0 124.5 18.5t123.5 59.5l42 -181q-62 -54 -157 -89t-203 -35q-189 0 -286 135t-64 337l4 24q-108 31 -154 133.5 t-16 255.5zM279 -461l111 558h282l-111 -558h-282zM507 645h226l7 40q15 94 -1.5 141.5t-73.5 47.5q-58 0 -97 -62.5t-61 -166.5z" />
<glyph unicode="&#x4c0;" horiz-adv-x="523" d="M35 0l291 1456h281l-291 -1456h-281z" />
<glyph unicode="&#x4c1;" horiz-adv-x="1728" d="M-60 0l516 804l-209 652h350l110 -594h115l119 594h282l-119 -594h112l340 594h349l-462 -650l186 -806h-350l-95 604h-132l-120 -604h-282l120 604h-135l-344 -604h-351zM855 1892l2 5h206q-9 -54 9 -87.5t67 -33.5q45 0 73 34t37 87h206l2 -6q-17 -134 -111 -212 t-235 -78q-136 0 -208.5 81.5t-47.5 209.5z" />
<glyph unicode="&#x4c2;" horiz-adv-x="1491" d="M-51 0l369 590l-149 492h358l59 -407h72l82 407h282l-82 -407h77l220 407h358l-345 -492l133 -590h-361l-46 404h-90l-80 -404h-282l80 404h-87l-207 -404h-361zM672 1549l2 5h206q-9 -54 9 -87.5t67 -33.5q45 0 73 34t37 87h206l2 -6q-17 -134 -111 -212t-235 -78 q-136 0 -208.5 81.5t-47.5 209.5z" />
<glyph unicode="&#x4c3;" horiz-adv-x="1115" d="M21 0l291 1456h282l-119 -593h63l367 593h350l-481 -638q164 -37 239.5 -183t27.5 -392q-52 -254 -193.5 -420.5t-381.5 -162.5l-5 3l41 205q108 0 166.5 107t88.5 253q37 188 2.5 280.5t-139.5 92.5h-197l-120 -601h-282z" />
<glyph unicode="&#x4c4;" horiz-adv-x="994" d="M22 0l216 1082h282l-82 -409h60l230 409h357l-372 -493q112 -53 161 -163t16 -274q-23 -130 -128.5 -261.5t-261.5 -195.5l-87 186q74 48 125 114t70 157q25 126 -8 184t-121 66h-95l-80 -402h-282z" />
<glyph unicode="&#x4c5;" horiz-adv-x="1194" d="M-38 0l45 227h32q111 11 167 126.5t120 448.5l125 654h841l-291 -1456h-281l245 1228h-276l-81 -426q-83 -429 -226 -615.5t-354 -186.5h-66zM861 -346l121 319l46 231h250l-48 -239l-205 -311h-164z" />
<glyph unicode="&#x4c6;" horiz-adv-x="965" d="M-61 0l42 230h24q73 0 109.5 79.5t83.5 308.5l92 464h720l-216 -1082h-282l170 854h-154l-47 -236q-69 -340 -180.5 -479t-323.5 -139h-38zM654 -346l121 319l46 231h250l-48 -239l-205 -311h-164z" />
<glyph unicode="&#x4c7;" horiz-adv-x="1196" d="M23 0l291 1456h282l-125 -626h416l125 626h281l-298 -1489q-41 -206 -146 -305t-263 -99q-32 0 -62 4.5t-61 13.5l56 222q19 -6 36.5 -9t41.5 -3q36 0 68 46.5t49 129.5l128 636h-416l-121 -603h-282z" />
<glyph unicode="&#x4c8;" horiz-adv-x="960" d="M0 0l216 1082h282l-87 -436h224l87 436h283l-223 -1115q-41 -206 -146 -305t-263 -99q-32 0 -62 4.5t-61 13.5l57 222q19 -6 36.5 -9t40.5 -3q36 0 67 46t48 130l91 453h-224l-84 -420h-282z" />
<glyph unicode="&#x4c9;" horiz-adv-x="1193" d="M22 0l291 1456h283l-125 -626h415l125 626h281l-291 -1456h-281l120 603h-415l-120 -603h-283zM861 -346l121 319l46 231h250l-48 -239l-205 -311h-164z" />
<glyph unicode="&#x4ca;" horiz-adv-x="963" d="M1 0l216 1082h282l-87 -436h225l87 436h283l-216 -1082h-283l84 420h-225l-84 -420h-282zM651 -346l121 319l46 231h250l-48 -239l-205 -311h-164z" />
<glyph unicode="&#x4cb;" horiz-adv-x="1189" d="M234 1014l88 442h281l-88 -442q-31 -152 3 -202.5t139 -50.5q36 0 99 7.5t114 19.5l134 668h283l-291 -1456h-283l112 562q-52 -13 -113.5 -20.5t-99.5 -7.5q-211 0 -318.5 120t-59.5 360zM463 -356l111 558h282l-111 -558h-282z" />
<glyph unicode="&#x4cc;" horiz-adv-x="952" d="M141 746l67 336h281l-67 -336q-23 -117 1 -152.5t106 -35.5q19 0 39 2.5t43 8.5l103 513h283l-216 -1082h-283l68 340q-23 -5 -44 -7t-39 -2q-192 0 -288.5 102t-53.5 313zM248 -356l111 558h282l-111 -558h-282z" />
<glyph unicode="&#x4cd;" horiz-adv-x="1421" d="M17 0l291 1456h366l24 -1067l6 -1l453 1068h368l-291 -1456h-281l85 423l129 533l-6 2l-444 -958h-187l-59 947l-6 1l-82 -525l-85 -423h-281zM1093 -346l121 319l46 231h250l-48 -239l-205 -311h-164z" />
<glyph unicode="&#x4ce;" horiz-adv-x="1296" d="M22 0l216 1082h347l32 -739l6 -1l331 740h355l-216 -1082h-283l107 537l-5 2l-265 -539h-188l-47 511l-6 1l-102 -512h-282zM952 -346l121 319l46 231h250l-48 -239l-205 -311h-164z" />
<glyph unicode="&#x4cf;" horiz-adv-x="523" d="M35 0l291 1456h281l-291 -1456h-281z" />
<glyph unicode="&#x4d0;" horiz-adv-x="1095" d="M-65 0l679 1456h293l96 -1456h-284l-13 309h-351l-136 -309h-284zM455 538h242l-19 491l-6 1zM536 1892l2 5h206q-9 -54 9 -87.5t67 -33.5q45 0 73 34t37 87h206l2 -6q-17 -134 -111 -212t-235 -78q-136 0 -208.5 81.5t-47.5 209.5z" />
<glyph unicode="&#x4d1;" horiz-adv-x="911" d="M33 302q34 170 146 252.5t309 82.5h96l18 88q16 84 0 124t-68 40q-39 0 -68 -35t-41 -98l-273 1l-2 6q26 151 148 245t297 94q152 0 238.5 -100t51.5 -279l-88 -438q-17 -84 -19.5 -150t6.5 -135h-280q-6 27 -8.5 58t-2.5 64q-50 -65 -110.5 -104t-131.5 -39 q-120 0 -183.5 89.5t-34.5 233.5zM318 315q-12 -58 4 -90t54 -32q36 0 72.5 22t63.5 58l40 201h-96q-53 0 -89 -45.5t-49 -113.5zM368 1570l2 5h206q-9 -54 9 -87.5t67 -33.5q45 0 73 34t37 87h206l2 -6q-17 -134 -111 -212t-235 -78q-136 0 -208.5 81.5t-47.5 209.5z" />
<glyph unicode="&#x4d2;" horiz-adv-x="1095" d="M-65 0l679 1456h293l96 -1456h-284l-13 309h-351l-136 -309h-284zM453 1606l32 198h245l-32 -198h-245zM455 538h242l-19 491l-6 1zM883 1606l32 198h245l-32 -198h-245z" />
<glyph unicode="&#x4d3;" horiz-adv-x="911" d="M33 302q34 170 146 252.5t309 82.5h96l18 88q16 84 0 124t-68 40q-39 0 -68 -35t-41 -98l-273 1l-2 6q26 151 148 245t297 94q152 0 238.5 -100t51.5 -279l-88 -438q-17 -84 -19.5 -150t6.5 -135h-280q-6 27 -8.5 58t-2.5 64q-50 -65 -110.5 -104t-131.5 -39 q-120 0 -183.5 89.5t-34.5 233.5zM285 1284l32 198h245l-32 -198h-245zM318 315q-12 -58 4 -90t54 -32q36 0 72.5 22t63.5 58l40 201h-96q-53 0 -89 -45.5t-49 -113.5zM715 1284l32 198h245l-32 -198h-245z" />
<glyph unicode="&#x4d4;" horiz-adv-x="1593" d="M-73 0l895 1456h860l-46 -231h-454l-60 -363h375l-46 -230h-368l-67 -402h470l-46 -230h-744l56 339h-301l-196 -339h-328zM590 578h202l79 474l-5 2z" />
<glyph unicode="&#x4d5;" horiz-adv-x="1420" d="M20 317q34 169 154.5 250.5t328.5 81.5h124l11 56q16 84 -1.5 126.5t-65.5 42.5q-47 0 -85.5 -37.5t-48.5 -91.5l-268 17l-2 6q26 154 148.5 244t303.5 90q72 0 132.5 -22t102.5 -65q58 43 127.5 65t149.5 22q162 0 241 -133.5t35 -353.5l-32 -160h-505 q-20 -123 9.5 -186t121.5 -63q68 0 122.5 19.5t123.5 58.5l33 -183q-59 -49 -158 -85.5t-200 -36.5q-96 0 -168.5 39t-115.5 112q-62 -66 -151 -108.5t-198 -42.5q-151 0 -225 92.5t-44 245.5zM301 313q-13 -64 7 -96.5t77 -32.5q34 0 83 27t84 64l38 191h-122 q-60 0 -107.5 -45.5t-59.5 -107.5zM910 644h228l5 27q20 100 6.5 151.5t-63.5 51.5q-62 0 -104.5 -61t-71.5 -169z" />
<glyph unicode="&#x4d6;" horiz-adv-x="971" d="M22 0l291 1456h823l-45 -228h-541l-72 -362h460l-45 -227h-460l-83 -412h542l-45 -227h-825zM475 1892l2 5h206q-9 -54 9 -87.5t67 -33.5q45 0 73 34t37 87h206l2 -6q-17 -134 -111 -212t-235 -78q-136 0 -208.5 81.5t-47.5 209.5z" />
<glyph unicode="&#x4d7;" horiz-adv-x="907" d="M73 451l24 152q36 227 163 363t318 136q176 0 258.5 -128.5t48.5 -344.5l-28 -174h-504v-4q-18 -111 15 -178t125 -67q72 0 124.5 18.5t123.5 59.5l42 -181q-62 -54 -157 -89t-203 -35q-189 0 -286 135t-64 337zM329 1571l2 5h206q-9 -54 9 -87.5t67 -33.5q45 0 73 34 t37 87h206l2 -6q-17 -134 -111 -212t-235 -78q-136 0 -208.5 81.5t-47.5 209.5zM384 645h226l7 40q15 94 -1.5 141.5t-73.5 47.5q-58 0 -97 -62.5t-61 -166.5z" />
<glyph unicode="&#x4d8;" horiz-adv-x="1170" d="M109 658l31 157h741q38 199 -11 307.5t-212 108.5q-89 0 -175 -21.5t-143 -48.5l4 230q34 27 135.5 56.5t227.5 29.5q264 0 388.5 -186.5t65.5 -481.5l-33 -163q-63 -311 -242 -489t-400 -178q-234 0 -337 184t-40 495zM370 555q-33 -162 2.5 -246.5t162.5 -84.5 q93 0 174.5 102.5t120.5 257.5l-3 5h-450z" />
<glyph unicode="&#x4d9;" horiz-adv-x="907" d="M79 466l32 161h498q15 116 -14.5 182.5t-111.5 66.5q-70 0 -125 -19.5t-125 -58.5l-36 181q65 52 162 88t204 36q183 0 274 -152t47 -376l-8 -41q-53 -261 -187.5 -407.5t-326.5 -145.5q-171 0 -249 132t-34 353zM336 257q14 -50 71 -50q50 0 91.5 62t71.5 168h-222 l-5 -27q-21 -103 -7 -153z" />
<glyph unicode="&#x4da;" horiz-adv-x="1170" d="M109 658l31 157h741q38 199 -11 307.5t-212 108.5q-89 0 -175 -21.5t-143 -48.5l4 230q34 27 135.5 56.5t227.5 29.5q264 0 388.5 -186.5t65.5 -481.5l-33 -163q-63 -311 -242 -489t-400 -178q-234 0 -337 184t-40 495zM370 555q-33 -162 2.5 -246.5t162.5 -84.5 q93 0 174.5 102.5t120.5 257.5l-3 5h-450zM428 1627l32 198h245l-32 -198h-245zM858 1627l32 198h245l-32 -198h-245z" />
<glyph unicode="&#x4db;" horiz-adv-x="907" d="M79 466l32 161h498q15 116 -14.5 182.5t-111.5 66.5q-70 0 -125 -19.5t-125 -58.5l-36 181q65 52 162 88t204 36q183 0 274 -152t47 -376l-8 -41q-53 -261 -187.5 -407.5t-326.5 -145.5q-171 0 -249 132t-34 353zM243 1284l32 198h245l-32 -198h-245zM336 257 q14 -50 71 -50q50 0 91.5 62t71.5 168h-222l-5 -27q-21 -103 -7 -153zM673 1284l32 198h245l-32 -198h-245z" />
<glyph unicode="&#x4dc;" horiz-adv-x="1728" d="M-60 0l516 804l-209 652h350l110 -594h115l119 594h282l-119 -594h112l340 594h349l-462 -650l186 -806h-350l-95 604h-132l-120 -604h-282l120 604h-135l-344 -604h-351zM772 1606l32 198h245l-32 -198h-245zM1202 1606l32 198h245l-32 -198h-245z" />
<glyph unicode="&#x4dd;" horiz-adv-x="1491" d="M-51 0l369 590l-149 492h358l59 -407h72l82 407h282l-82 -407h77l220 407h358l-345 -492l133 -590h-361l-46 404h-90l-80 -404h-282l80 404h-87l-207 -404h-361zM589 1263l32 198h245l-32 -198h-245zM1019 1263l32 198h245l-32 -198h-245z" />
<glyph unicode="&#x4de;" horiz-adv-x="1053" d="M64 399l2 5h275q-19 -91 15 -144.5t108 -53.5q76 0 137.5 58t79.5 146q25 124 -4.5 173t-111.5 49h-145l31 152l14 69h145q68 0 116 54.5t68 150.5q17 88 -12.5 139.5t-108.5 51.5q-61 0 -114.5 -51.5t-69.5 -134.5h-273l-2 6q34 195 176.5 301.5t327.5 106.5 q191 0 294 -110t64 -305q-22 -108 -87 -191t-160 -128q85 -45 121.5 -131t12.5 -206q-43 -214 -189 -320.5t-355 -106.5q-171 0 -285.5 108.5t-69.5 311.5zM424 1627l32 198h245l-32 -198h-245zM854 1627l32 198h245l-32 -198h-245z" />
<glyph unicode="&#x4df;" horiz-adv-x="879" d="M44 313l2 5h274q-12 -60 6.5 -93.5t75.5 -33.5q47 0 79 39t44 97q15 75 -3 105.5t-68 30.5h-123l10 54l10 48l4 21l12 57h123q40 0 67.5 32.5t39.5 88.5q11 58 0.5 91.5t-56.5 33.5q-42 0 -74.5 -31.5t-42.5 -85.5h-273l-2 6q27 156 143.5 239t274.5 83q164 0 254 -83 t61 -230q-16 -79 -64 -140t-120 -94q66 -34 93.5 -97.5t10.5 -151.5q-32 -161 -155.5 -242t-303.5 -81q-144 0 -240 86.5t-59 245.5zM283 1284l32 198h245l-32 -198h-245zM713 1284l32 198h245l-32 -198h-245z" />
<glyph unicode="&#x4e0;" horiz-adv-x="982" d="M66 404h283q-19 -92 7 -145t92 -53q71 0 130 58t77 146q30 156 -7.5 217.5t-142.5 61.5h-112l34 173l1 5l318 356l-2 5h-455l45 228h785l-37 -188l-375 -405q139 -36 202 -154.5t27 -302.5q-43 -213 -186 -320t-347 -107q-163 0 -271 109t-66 316z" />
<glyph unicode="&#x4e1;" horiz-adv-x="982" d="M-5 24l3 5h276q-19 -89 8 -142.5t92 -53.5q71 0 129.5 58.5t76.5 144.5q31 156 -5 217.5t-141 61.5h-116l12 60l23 117l315 357l-2 5h-460l45 228h793l-37 -189l-372 -404q138 -36 200 -154.5t26 -303.5q-42 -211 -185.5 -318.5t-347.5 -107.5q-163 0 -269.5 109 t-63.5 310z" />
<glyph unicode="&#x4e2;" horiz-adv-x="1178" d="M11 0l291 1456h282l-176 -880l6 -2l583 882h282l-291 -1456h-282l175 878l-6 2l-582 -880h-282zM510 1617l25 160h629l-25 -160h-629z" />
<glyph unicode="&#x4e3;" horiz-adv-x="963" d="M1 0l216 1082h283l-112 -562l5 -3l334 565h282l-216 -1082h-282l112 563l-5 3l-334 -566h-283zM340 1276l25 160h629l-25 -160h-629z" />
<glyph unicode="&#x4e4;" horiz-adv-x="1178" d="M11 0l291 1456h282l-176 -880l6 -2l583 882h282l-291 -1456h-282l175 878l-6 2l-582 -880h-282zM483 1606l32 198h245l-32 -198h-245zM913 1606l32 198h245l-32 -198h-245z" />
<glyph unicode="&#x4e5;" horiz-adv-x="963" d="M1 0l216 1082h283l-112 -562l5 -3l334 565h282l-216 -1082h-282l112 563l-5 3l-334 -566h-283zM313 1263l32 198h245l-32 -198h-245zM743 1263l32 198h245l-32 -198h-245z" />
<glyph unicode="&#x4e6;" horiz-adv-x="1121" d="M114 600l52 259q58 290 212.5 454t376.5 164q211 0 337 -181t74 -441l-52 -259q-58 -289 -218 -453t-384 -164q-209 0 -330 179.5t-68 441.5zM394 600q-36 -180 9 -286.5t154 -106.5q95 0 168 107.5t108 281.5l52 261q36 177 -14.5 284t-160.5 107q-94 0 -161.5 -106 t-102.5 -281zM465 1627l32 198h245l-32 -198h-245zM895 1627l32 198h245l-32 -198h-245z" />
<glyph unicode="&#x4e7;" horiz-adv-x="960" d="M66 473l21 134q36 226 166.5 360.5t332.5 134.5q191 0 283.5 -140t58.5 -355l-21 -134q-37 -228 -168 -361t-331 -133q-193 0 -285.5 138.5t-56.5 355.5zM275 1284l32 198h245l-32 -198h-245zM344.5 274.5q19.5 -68.5 99.5 -68.5q73 0 117 72t64 195l21 134 q20 127 0.5 197t-96.5 70q-74 0 -119.5 -73.5t-63.5 -193.5l-21 -134q-21 -130 -1.5 -198.5zM705 1284l32 198h245l-32 -198h-245z" />
<glyph unicode="&#x4e8;" horiz-adv-x="1170" d="M101 523l81 408q54 272 211 409t382 137q206 0 317.5 -148t61.5 -398l-81 -408q-55 -273 -212.5 -408.5t-383.5 -135.5q-207 0 -317 146t-59 398zM380 523q-34 -168 2 -242t140 -74q94 0 166 80.5t104 235.5l24 122h-412zM439 820h412l23 113q32 167 -4.5 241t-139.5 74 q-96 0 -167 -80.5t-101 -234.5z" />
<glyph unicode="&#x4e9;" horiz-adv-x="958" d="M64 473l21 134q36 226 166.5 360.5t332.5 134.5q191 0 283.5 -140t58.5 -355l-21 -134q-37 -228 -168 -361t-331 -133q-193 0 -285.5 138.5t-56.5 355.5zM340 449q-17 -118 4.5 -180.5t97.5 -62.5q69 0 112 65.5t64 177.5h-278zM368 625h279q17 118 -4 183.5t-95 65.5 q-72 0 -116.5 -68.5t-63.5 -180.5z" />
<glyph unicode="&#x4ea;" horiz-adv-x="1170" d="M101 523l81 408q54 272 211 409t382 137q206 0 317.5 -148t61.5 -398l-81 -408q-55 -273 -212.5 -408.5t-383.5 -135.5q-207 0 -317 146t-59 398zM380 523q-34 -168 2 -242t140 -74q94 0 166 80.5t104 235.5l24 122h-412zM439 820h412l23 113q32 167 -4.5 241t-139.5 74 q-96 0 -167 -80.5t-101 -234.5zM502 1627l32 198h245l-32 -198h-245zM932 1627l32 198h245l-32 -198h-245z" />
<glyph unicode="&#x4eb;" horiz-adv-x="958" d="M64 473l21 134q36 226 166.5 360.5t332.5 134.5q191 0 283.5 -140t58.5 -355l-21 -134q-37 -228 -168 -361t-331 -133q-193 0 -285.5 138.5t-56.5 355.5zM305 1284l32 198h245l-32 -198h-245zM340 449q-17 -118 4.5 -180.5t97.5 -62.5q69 0 112 65.5t64 177.5h-278z M368 625h279q17 118 -4 183.5t-95 65.5q-72 0 -116.5 -68.5t-63.5 -180.5zM735 1284l32 198h245l-32 -198h-245z" />
<glyph unicode="&#x4ec;" horiz-adv-x="1044" d="M69 482h282q-31 -153 -4.5 -214t119.5 -61q82 0 145.5 102.5t97.5 271.5l8 40h-339l46 228h339l5 25q36 185 16 280.5t-109 95.5q-85 0 -140.5 -67.5t-83.5 -209.5h-273l-2 6q47 255 186 377t359 122q193 0 287.5 -170t42.5 -434l-58 -291q-58 -287 -209.5 -445 t-362.5 -158q-202 0 -301.5 130.5t-50.5 371.5zM420 1627l32 198h245l-32 -198h-245zM850 1627l32 198h245l-32 -198h-245z" />
<glyph unicode="&#x4ed;" horiz-adv-x="873" d="M44 402h265q-19 -96 -5 -146t69 -50q61 0 105.5 68.5t74.5 184.5h-179l34 169h179q19 120 2.5 183t-83.5 63q-50 0 -85 -44t-50 -122h-257l-2 6q32 180 154 284t285 104q185 0 268.5 -156.5t36.5 -391.5l-6 -28q-52 -257 -186.5 -402t-335.5 -145q-158 0 -240 115 t-44 308zM274 1284l32 198h245l-32 -198h-245zM704 1284l32 198h245l-32 -198h-245z" />
<glyph unicode="&#x4ee;" horiz-adv-x="1070" d="M149 -17l40 227q7 -2 27 -3t34 -1q57 0 96.5 36.5t69.5 108.5l23 49h-3l-194 1056h301l80 -661v-11l328 672h295l-618 -1173q-87 -146 -174.5 -225t-218.5 -79q-18 0 -44.5 1.5t-41.5 2.5zM459 1617l25 160h629l-25 -160h-629z" />
<glyph unicode="&#x4ef;" d="M-81 -413l76 212q13 -3 21 -4.5t16 -1.5q54 0 92 33.5t61 84.5l38 78l-84 1093h303l-11 -615l6 -2l264 617h301l-595 -1245q-62 -116 -143.5 -195t-217.5 -79q-32 0 -59 6t-68 18zM293 1276l25 160h629l-25 -160h-629z" />
<glyph unicode="&#x4f0;" horiz-adv-x="1070" d="M149 -17l40 227q7 -2 27 -3t34 -1q57 0 96.5 36.5t69.5 108.5l23 49h-3l-194 1056h301l80 -661v-11l328 672h295l-618 -1173q-87 -146 -174.5 -225t-218.5 -79q-18 0 -44.5 1.5t-41.5 2.5zM432 1606l32 198h245l-32 -198h-245zM862 1606l32 198h245l-32 -198h-245z" />
<glyph unicode="&#x4f1;" d="M-81 -413l76 212q13 -3 21 -4.5t16 -1.5q54 0 92 33.5t61 84.5l38 78l-84 1093h303l-11 -615l6 -2l264 617h301l-595 -1245q-62 -116 -143.5 -195t-217.5 -79q-32 0 -59 6t-68 18zM268 1263l32 198h245l-32 -198h-245zM698 1263l32 198h245l-32 -198h-245z" />
<glyph unicode="&#x4f2;" horiz-adv-x="1070" d="M149 -17l40 227q7 -2 27 -3t34 -1q57 0 96.5 36.5t69.5 108.5l23 49h-3l-194 1056h301l80 -661v-11l328 672h295l-618 -1173q-87 -146 -174.5 -225t-218.5 -79q-18 0 -44.5 1.5t-41.5 2.5zM488 1601l210 266h257l3 -6l-246 -260h-224zM796 1606l239 261h260l2 -6 l-279 -260h-220z" />
<glyph unicode="&#x4f3;" d="M-81 -413l76 212q13 -3 21 -4.5t16 -1.5q54 0 92 33.5t61 84.5l38 78l-84 1093h303l-11 -615l6 -2l264 617h301l-595 -1245q-62 -116 -143.5 -195t-217.5 -79q-32 0 -59 6t-68 18zM322 1258l210 266h257l3 -6l-246 -260h-224zM630 1263l239 261h260l2 -6l-279 -260h-220z " />
<glyph unicode="&#x4f4;" horiz-adv-x="1189" d="M234 1014l88 442h281l-88 -442q-31 -152 3 -202.5t139 -50.5q36 0 99 7.5t114 19.5l134 668h283l-291 -1456h-283l112 562q-52 -13 -113.5 -20.5t-99.5 -7.5q-211 0 -318.5 120t-59.5 360zM542 1606l32 198h245l-32 -198h-245zM972 1606l32 198h245l-32 -198h-245z" />
<glyph unicode="&#x4f5;" horiz-adv-x="952" d="M141 746l67 336h281l-67 -336q-23 -117 1 -152.5t106 -35.5q19 0 39 2.5t43 8.5l103 513h283l-216 -1082h-283l68 340q-23 -5 -44 -7t-39 -2q-192 0 -288.5 102t-53.5 313zM302 1263l32 198h245l-32 -198h-245zM732 1263l32 198h245l-32 -198h-245z" />
<glyph unicode="&#x4f6;" horiz-adv-x="948" d="M23 0l291 1456h786l-45 -228h-503l-246 -1228h-283zM123 -356l111 558h282l-111 -558h-282z" />
<glyph unicode="&#x4f7;" horiz-adv-x="716" d="M1 0l216 1082h615l-45 -228h-333l-171 -854h-282zM59 -356l111 558h282l-111 -558h-282z" />
<glyph unicode="&#x4f8;" horiz-adv-x="1484" d="M24 0l291 1456h281l-107 -536h169q197 0 303.5 -126.5t66.5 -328.5q-45 -222 -193 -343.5t-361 -121.5h-450zM350 227h169q78 0 142.5 69.5t84.5 170.5q21 105 -13 165.5t-120 60.5h-170zM633 1606l32 198h245l-32 -198h-245zM1009 0l291 1456h281l-291 -1456h-281z M1063 1606l32 198h245l-32 -198h-245z" />
<glyph unicode="&#x4f9;" horiz-adv-x="1440" d="M22 0l216 1082h283l-64 -319h134q173 0 263.5 -107t57.5 -277q-36 -180 -161 -279.5t-313 -99.5h-416zM350 225h133q55 0 94.5 44t53.5 110q14 74 -6 116t-80 42h-133zM538 1263l32 198h245l-32 -198h-245zM954 0l216 1082h283l-216 -1082h-283zM968 1263l32 198h245 l-32 -198h-245z" />
<glyph unicode="&#x4fa;" horiz-adv-x="1036" d="M109 0l291 1456h786l-45 -228h-503l-246 -1228h-283zM111 671l35 175h557l-35 -175h-557zM120 -419l57 224q21 -6 37.5 -9.5t37.5 -3.5q37 0 68 45.5t47 129.5l59 291h282l-59 -291q-41 -206 -145.5 -305t-262.5 -99q-31 0 -60 4.5t-61 13.5z" />
<glyph unicode="&#x4fb;" horiz-adv-x="728" d="M44 -425l57 224q21 -6 37.5 -9.5t37.5 -3.5q37 0 68 45.5t47 129.5l59 291h282l-59 -291q-41 -206 -145.5 -305t-262.5 -99q-31 0 -60 4.5t-61 13.5zM56 494l35 175h557l-35 -175h-557zM76 0l216 1082h615l-45 -228h-333l-171 -854h-282z" />
<glyph unicode="&#x4fc;" horiz-adv-x="1088" d="M-40 0l458 734l-217 722h324l95 -508l6 -1l261 509h326l-449 -722l239 -734h-340l-101 519l-6 1l-268 -520h-328zM603 -419l57 224q21 -6 37.5 -9.5t37.5 -3.5q37 0 68 45.5t47 129.5l59 291h282l-59 -291q-41 -206 -145.5 -305t-262.5 -99q-31 0 -60 4.5t-61 13.5z" />
<glyph unicode="&#x4fd;" d="M-51 0l347 547l-168 535h316l41 -339l6 -1l155 340h317l-338 -535l172 -547h-316l-49 349l-5 1l-161 -350h-317zM387 -419l57 224q21 -6 37.5 -9.5t37.5 -3.5q37 0 68 45.5t47 129.5l59 291h282l-59 -291q-41 -206 -145.5 -305t-262.5 -99q-31 0 -60 4.5t-61 13.5z" />
<glyph unicode="&#x4fe;" horiz-adv-x="1088" d="M-40 0l411 659h-68l35 175h50l-187 622h324l95 -508l6 -1l261 509h326l-387 -622h69l-35 -175h-72l215 -659h-340l-101 519l-6 1l-268 -520h-328z" />
<glyph unicode="&#x4ff;" d="M-51 0l297 468h-76l35 175h61l-138 439h316l41 -339l6 -1l155 340h317l-278 -439h77l-35 -175h-77l147 -468h-316l-49 349l-5 1l-161 -350h-317z" />
<glyph unicode="&#x2000;" horiz-adv-x="956" />
<glyph unicode="&#x2001;" horiz-adv-x="1913" />
<glyph unicode="&#x2002;" horiz-adv-x="956" />
<glyph unicode="&#x2003;" horiz-adv-x="1913" />
<glyph unicode="&#x2004;" horiz-adv-x="637" />
<glyph unicode="&#x2005;" horiz-adv-x="478" />
<glyph unicode="&#x2006;" horiz-adv-x="318" />
<glyph unicode="&#x2007;" horiz-adv-x="318" />
<glyph unicode="&#x2008;" horiz-adv-x="239" />
<glyph unicode="&#x2009;" horiz-adv-x="382" />
<glyph unicode="&#x200a;" horiz-adv-x="106" />
<glyph unicode="&#x2010;" horiz-adv-x="734" d="M140 511l46 228h478l-46 -228h-478z" />
<glyph unicode="&#x2011;" horiz-adv-x="734" d="M140 511l46 228h478l-46 -228h-478z" />
<glyph unicode="&#x2012;" horiz-adv-x="734" d="M140 511l46 228h478l-46 -228h-478z" />
<glyph unicode="&#x2013;" horiz-adv-x="1166" d="M192 600l60 230h873l-59 -230h-874z" />
<glyph unicode="&#x2014;" horiz-adv-x="1373" d="M181 600l74 230h1075l-74 -230h-1075z" />
<glyph unicode="&#x2018;" horiz-adv-x="363" d="M162 1023l38 191l212 346h135l-115 -342l-39 -195h-231z" />
<glyph unicode="&#x2019;" horiz-adv-x="363" d="M170 1024l115 344l38 192h232l-38 -192l-212 -344h-135z" />
<glyph unicode="&#x201a;" horiz-adv-x="365" d="M-94 -257l103 267l57 285h232l-54 -271l-186 -281h-152z" />
<glyph unicode="&#x201c;" horiz-adv-x="657" d="M162 1023l38 191l212 346h135l-115 -342l-39 -195h-231zM456 1023l38 191l212 346h135l-115 -342l-39 -195h-231z" />
<glyph unicode="&#x201d;" horiz-adv-x="665" d="M164 1024l115 344l38 192h232l-38 -192l-212 -344h-135zM464 1024l115 344l38 192h232l-38 -192l-212 -344h-135z" />
<glyph unicode="&#x201e;" horiz-adv-x="652" d="M-86 -246l100 254l53 263h215l-50 -251l-199 -266h-119zM216 -246l102 261l51 256h215l-50 -251l-199 -266h-119z" />
<glyph unicode="&#x2026;" horiz-adv-x="1307" d="M40 0l52 258h278l-52 -258h-278zM439 0l52 258h278l-52 -258h-278zM833 0l52 258h278l-52 -258h-278z" />
<glyph unicode="&#x202f;" horiz-adv-x="382" />
<glyph unicode="&#x2039;" horiz-adv-x="549" d="M123 541l1 6l3 13l299 389h173l-263 -399l104 -397h-173z" />
<glyph unicode="&#x203a;" horiz-adv-x="527" d="M18 152l263 398l-103 399h173l143 -389l-2 -6h1l-3 -13l-299 -389h-173z" />
<glyph unicode="&#x205f;" horiz-adv-x="478" />
<glyph unicode="&#x20ac;" horiz-adv-x="938" d="M74 454l38 200h112l25 116h-112l41 200h113l3 16q43 223 192 357t357 134q46 0 94 -8.5t99 -22.5l-66 -232q-40 16 -83 25.5t-89 9.5q-76 0 -139.5 -78.5t-81.5 -182.5l-4 -18h312l-41 -200h-312l-25 -116h312l-38 -200h-313l-2 -12q-23 -109 8.5 -172.5t115.5 -63.5 q43 0 92 8.5t93 24.5l-26 -229q-51 -15 -102 -23t-102 -8q-190 0 -295.5 135.5t-65.5 327.5l2 12h-112z" />
<glyph unicode="&#x2122;" horiz-adv-x="1076" d="M275 1350l21 106h325l-21 -106h-98l-87 -433h-134l87 433h-93zM568 914l108 542h146l11 -358l5 -1l153 359h140l-108 -542h-117l47 239l-5 2l-117 -241h-65l-22 255h-6l-51 -255h-119z" />
<glyph unicode="&#xe000;" horiz-adv-x="1080" d="M0 0v1080h1080v-1080h-1080z" />
</font>
</defs>
</svg>
